<svg width="500" height="500" viewBox="0 0 500 500" fill="none" xmlns="http://www.w3.org/2000/svg">
<path d="M292.592 463.001C286.135 463.001 279.76 461.556 273.934 458.769L149.131 399.083H149.143C149.13 399.078 149.116 399.073 149.103 399.067L148.995 399.019L148.808 398.929C147.883 398.47 145.729 397.193 145.702 395.224C146.151 386.697 146.055 367.568 140.371 335.26C137.446 319.932 130.264 303.41 125.02 291.347L125.009 291.322C122.406 285.339 120.349 280.612 119.427 277.488C118.172 273.538 117.433 269.441 117.229 265.3C116.862 257.965 118.992 250.721 123.272 244.753L123.277 244.745L123.297 244.713C123.401 244.556 123.555 244.323 123.693 244.105C125.398 241.542 127.4 239.187 129.655 237.09C133.369 233.639 137.324 230.458 141.492 227.571L282.794 166.137C285.884 164.793 289.217 164.1 292.586 164.1C295.956 164.1 299.29 164.793 302.38 166.137L467.895 238.101C472.285 240.008 476.022 243.157 478.646 247.16C481.271 251.163 482.668 255.845 482.666 260.632V361.307C482.659 365.936 481.344 370.469 478.873 374.383C476.402 378.298 472.876 381.434 468.699 383.431L311.247 458.769C305.423 461.554 299.048 463 292.591 463L292.592 463.001ZM292.586 188.808C290.705 188.806 288.843 189.191 287.117 189.939L158.665 245.791C157.036 246.5 155.651 247.669 154.678 249.154C153.704 250.639 153.185 252.376 153.185 254.151C153.185 255.927 153.704 257.664 154.678 259.149C155.651 260.634 157.036 261.802 158.665 262.511L287.117 318.363C288.844 319.11 290.706 319.495 292.587 319.495C294.469 319.495 296.33 319.11 298.057 318.363L426.507 262.511C428.136 261.804 429.523 260.638 430.499 259.153C431.474 257.669 431.995 255.933 431.996 254.157C431.998 252.381 431.482 250.644 430.51 249.158C429.538 247.671 428.153 246.501 426.525 245.791L298.055 189.938C296.329 189.19 294.467 188.805 292.585 188.807L292.586 188.808Z" fill="url(#paint0_linear_524_2211)"/>
<path d="M292.583 264.03C290.611 264.033 288.661 263.625 286.855 262.835L152.317 204.335C150.611 203.594 149.159 202.37 148.139 200.815C147.12 199.259 146.577 197.44 146.577 195.58C146.577 193.72 147.12 191.901 148.139 190.345C149.159 188.79 150.611 187.566 152.317 186.825L282.563 130.183L282.743 130.242C283.207 130.394 283.692 130.536 284.183 130.662C284.675 130.788 285.175 130.9 285.677 130.997C286.178 131.093 286.695 131.179 287.209 131.249C287.723 131.318 288.243 131.374 288.768 131.414C289.292 131.454 289.822 131.486 290.342 131.497C290.635 131.506 290.932 131.51 291.226 131.51C291.448 131.51 291.68 131.51 291.918 131.502C292.44 131.49 292.968 131.465 293.488 131.426C294.009 131.387 294.521 131.336 295.031 131.27C295.541 131.205 296.05 131.126 296.54 131.036C297.029 130.947 297.531 130.84 298.001 130.724C298.47 130.608 298.946 130.476 299.406 130.336C299.865 130.195 300.31 130.037 300.734 129.872C300.939 129.789 301.148 129.707 301.341 129.624L432.873 186.808C434.579 187.55 436.031 188.773 437.051 190.329C438.07 191.884 438.613 193.704 438.613 195.564C438.613 197.423 438.07 199.243 437.051 200.798C436.031 202.354 434.579 203.577 432.873 204.319L298.317 262.83C296.51 263.623 294.557 264.032 292.583 264.03Z" fill="#DEB9FF"/>
<path d="M292.583 195.912C290.611 195.914 288.661 195.507 286.855 194.716L152.317 136.217C150.611 135.476 149.159 134.252 148.14 132.697C147.12 131.141 146.577 129.322 146.577 127.462C146.577 125.602 147.12 123.783 148.139 122.227C149.159 120.672 150.611 119.448 152.317 118.707L286.855 60.1951C288.661 59.4044 290.612 58.9975 292.583 59C294.555 58.9975 296.506 59.4044 298.312 60.1951L432.849 118.707C434.555 119.448 436.007 120.672 437.026 122.227C438.046 123.783 438.589 125.602 438.589 127.462C438.589 129.322 438.046 131.141 437.026 132.697C436.007 134.252 434.555 135.476 432.849 136.217L298.311 194.716C296.505 195.507 294.555 195.914 292.583 195.912ZM232.221 115.197C231.997 115.197 231.772 115.197 231.552 115.204C231.049 115.214 230.538 115.238 230.034 115.274C229.53 115.309 229.027 115.356 228.525 115.418C228.022 115.48 227.521 115.551 227.037 115.636C226.553 115.72 226.056 115.817 225.576 115.925C225.096 116.033 224.624 116.154 224.154 116.287C223.685 116.42 223.235 116.563 222.783 116.721C222.332 116.879 221.898 117.045 221.474 117.226C221.049 117.406 220.628 117.602 220.234 117.804C219.84 118.007 219.45 118.224 219.077 118.451C218.704 118.679 218.36 118.915 218.041 119.153C217.722 119.391 217.424 119.638 217.152 119.888C216.89 120.127 216.642 120.382 216.408 120.65C216.193 120.898 215.994 121.16 215.812 121.433C215.644 121.689 215.494 121.956 215.365 122.234C215.243 122.495 215.143 122.766 215.065 123.044C214.99 123.31 214.939 123.583 214.913 123.859C214.886 124.129 214.884 124.401 214.908 124.672C214.932 124.944 214.98 125.214 215.052 125.478C215.127 125.75 215.225 126.015 215.346 126.27C215.472 126.539 215.621 126.797 215.789 127.042C215.968 127.304 216.166 127.552 216.38 127.786C216.613 128.039 216.862 128.277 217.124 128.499C217.408 128.74 217.706 128.965 218.015 129.173C218.338 129.391 218.688 129.602 219.055 129.801C219.422 129.999 219.827 130.196 220.245 130.379C220.664 130.563 221.099 130.729 221.552 130.885C221.992 131.036 222.461 131.177 222.936 131.306C223.41 131.434 223.892 131.544 224.383 131.642C224.874 131.74 225.374 131.825 225.882 131.894C226.389 131.963 226.905 132.021 227.421 132.064C227.917 132.105 228.447 132.135 228.987 132.15C229.285 132.159 229.58 132.163 229.864 132.163C230.088 132.163 230.318 132.163 230.566 132.154C231.091 132.143 231.623 132.117 232.148 132.078C232.673 132.039 233.202 131.987 233.718 131.922C234.234 131.857 234.755 131.778 235.265 131.687C235.775 131.596 236.287 131.489 236.777 131.373C237.267 131.258 237.758 131.125 238.238 130.984C238.717 130.843 239.194 130.683 239.643 130.519C240.102 130.354 240.552 130.169 240.972 129.98C241.392 129.791 241.819 129.582 242.216 129.368C242.614 129.153 243.005 128.921 243.363 128.685C243.722 128.45 244.06 128.206 244.378 127.951C244.677 127.712 244.963 127.457 245.234 127.188C245.483 126.94 245.717 126.678 245.933 126.402C246.132 126.147 246.314 125.879 246.476 125.599C246.627 125.339 246.757 125.067 246.866 124.786C246.968 124.521 247.048 124.248 247.104 123.969C247.158 123.701 247.188 123.428 247.192 123.155C247.198 122.884 247.178 122.614 247.133 122.347C247.088 122.077 247.02 121.812 246.929 121.554C246.834 121.286 246.717 121.027 246.579 120.779C246.432 120.518 246.267 120.268 246.083 120.031C245.888 119.778 245.676 119.538 245.449 119.313C245.206 119.071 244.948 118.843 244.678 118.631C244.386 118.402 244.083 118.189 243.769 117.991C243.445 117.786 243.093 117.587 242.723 117.398C242.353 117.21 241.953 117.027 241.54 116.857C241.127 116.688 240.688 116.526 240.254 116.385C239.821 116.244 239.368 116.112 238.904 115.994C238.456 115.879 237.983 115.774 237.499 115.683C237.015 115.591 236.533 115.513 236.052 115.449C235.571 115.385 235.073 115.331 234.57 115.292C234.068 115.252 233.564 115.227 233.067 115.209C232.788 115.201 232.503 115.197 232.221 115.197ZM291.087 114.612C290.869 114.612 290.645 114.612 290.42 114.62C289.916 114.631 289.41 114.654 288.916 114.689C288.423 114.725 287.925 114.772 287.429 114.833C286.933 114.894 286.449 114.966 285.973 115.05C285.497 115.133 285.026 115.229 284.559 115.338C284.091 115.447 283.628 115.57 283.193 115.699C282.74 115.834 282.301 115.979 281.89 116.131C281.461 116.289 281.046 116.462 280.657 116.635C280.268 116.807 279.869 117.009 279.507 117.209C279.144 117.409 278.784 117.629 278.451 117.854C278.128 118.071 277.817 118.304 277.519 118.553C277.245 118.782 276.986 119.026 276.741 119.285C276.515 119.524 276.305 119.777 276.113 120.044C275.934 120.292 275.774 120.553 275.634 120.825C275.502 121.081 275.392 121.347 275.303 121.622C275.22 121.885 275.159 122.155 275.122 122.429C275.087 122.698 275.076 122.97 275.089 123.24C275.103 123.514 275.141 123.785 275.203 124.051C275.269 124.326 275.356 124.594 275.465 124.855C275.583 125.128 275.721 125.391 275.879 125.644C276.045 125.913 276.23 126.17 276.432 126.414C276.65 126.676 276.884 126.924 277.131 127.158C277.4 127.409 277.682 127.646 277.975 127.868C278.277 128.096 278.609 128.321 278.967 128.54C279.325 128.759 279.703 128.969 280.097 129.167C280.491 129.364 280.93 129.563 281.368 129.74C281.806 129.918 282.277 130.092 282.745 130.244C283.214 130.396 283.694 130.537 284.186 130.663C284.678 130.79 285.178 130.901 285.679 130.994C286.168 131.089 286.684 131.174 287.211 131.246C287.721 131.316 288.246 131.372 288.77 131.411C289.294 131.451 289.828 131.483 290.344 131.494C290.635 131.503 290.932 131.507 291.229 131.507C291.451 131.507 291.684 131.507 291.92 131.499C292.442 131.487 292.969 131.462 293.491 131.423C294.012 131.384 294.525 131.332 295.034 131.267C295.543 131.201 296.054 131.122 296.542 131.032C297.03 130.942 297.524 130.838 298.003 130.721C298.482 130.603 298.952 130.473 299.408 130.332C299.864 130.192 300.312 130.034 300.737 129.868C301.162 129.703 301.586 129.521 301.984 129.331C302.381 129.141 302.773 128.934 303.134 128.722C303.496 128.511 303.85 128.279 304.178 128.042C304.493 127.815 304.795 127.57 305.082 127.31C305.346 127.072 305.594 126.818 305.826 126.549C306.037 126.301 306.23 126.04 306.405 125.765C306.567 125.51 306.708 125.242 306.829 124.964C306.942 124.703 307.032 124.432 307.099 124.155C307.163 123.888 307.203 123.616 307.218 123.341C307.231 123.07 307.221 122.798 307.187 122.529C307.151 122.256 307.092 121.987 307.01 121.725C306.924 121.453 306.817 121.189 306.689 120.934C306.554 120.666 306.399 120.408 306.227 120.163C306.043 119.902 305.842 119.654 305.626 119.419C305.394 119.167 305.149 118.928 304.89 118.703C304.611 118.462 304.321 118.235 304.02 118.023C303.709 117.804 303.372 117.589 303.019 117.386C302.666 117.183 302.275 116.979 301.888 116.795C301.501 116.612 301.062 116.424 300.629 116.255C300.196 116.087 299.737 115.925 299.277 115.785C298.818 115.646 298.345 115.51 297.873 115.395C297.4 115.28 296.906 115.173 296.426 115.084C295.947 114.996 295.45 114.919 294.949 114.851C294.447 114.784 293.945 114.734 293.449 114.695C292.952 114.656 292.436 114.63 291.936 114.612C291.651 114.617 291.369 114.612 291.087 114.612ZM350.298 114.249C350.079 114.249 349.858 114.249 349.637 114.255C349.141 114.265 348.637 114.289 348.15 114.325C347.662 114.36 347.158 114.408 346.69 114.469C346.205 114.529 345.727 114.601 345.269 114.684C344.811 114.766 344.355 114.862 343.9 114.971C343.445 115.08 343.011 115.201 342.591 115.331C342.171 115.462 341.75 115.608 341.351 115.763C340.952 115.917 340.558 116.093 340.194 116.265C339.819 116.447 339.461 116.64 339.131 116.839C338.801 117.037 338.481 117.251 338.173 117.483C337.884 117.698 337.608 117.931 337.346 118.179C337.107 118.407 336.883 118.651 336.677 118.909C336.486 119.148 336.313 119.401 336.161 119.666C336.019 119.915 335.897 120.176 335.798 120.445C335.704 120.704 335.634 120.97 335.587 121.24C335.542 121.506 335.521 121.776 335.526 122.045C335.529 122.318 335.556 122.589 335.608 122.856C335.664 123.132 335.742 123.402 335.843 123.664C335.949 123.941 336.076 124.208 336.223 124.465C336.38 124.739 336.555 125.003 336.747 125.253C336.954 125.522 337.176 125.778 337.413 126.021C337.67 126.282 337.94 126.531 338.222 126.764C338.509 127.003 338.828 127.242 339.169 127.474C339.509 127.706 339.876 127.932 340.253 128.144C340.643 128.363 341.053 128.573 341.473 128.768C341.892 128.964 342.359 129.162 342.825 129.341C343.291 129.521 343.782 129.69 344.274 129.843C344.765 129.996 345.269 130.136 345.774 130.261C346.278 130.386 346.792 130.497 347.312 130.596C347.833 130.694 348.35 130.776 348.883 130.844C349.398 130.912 349.931 130.969 350.464 131.009C350.997 131.049 351.527 131.081 352.047 131.092C352.329 131.1 352.615 131.104 352.923 131.104C353.171 131.104 353.399 131.104 353.62 131.097C354.142 131.084 354.663 131.058 355.171 131.02C355.678 130.982 356.201 130.929 356.688 130.865C357.175 130.801 357.68 130.722 358.159 130.631C358.639 130.54 359.108 130.437 359.571 130.321C360.034 130.204 360.491 130.073 360.912 129.933C361.333 129.793 361.763 129.638 362.17 129.471C362.577 129.304 362.974 129.121 363.334 128.935C363.707 128.744 364.063 128.539 364.393 128.327C364.719 128.118 365.033 127.891 365.334 127.648C365.615 127.422 365.88 127.178 366.129 126.918C366.357 126.681 366.567 126.427 366.757 126.159C366.933 125.912 367.089 125.65 367.223 125.378C367.348 125.121 367.451 124.855 367.529 124.58C367.604 124.316 367.654 124.045 367.679 123.772C367.704 123.502 367.704 123.23 367.679 122.96C367.652 122.686 367.602 122.415 367.529 122.15C367.451 121.875 367.352 121.607 367.233 121.348C367.106 121.075 366.961 120.811 366.796 120.56C366.62 120.291 366.427 120.034 366.218 119.79C365.995 119.529 365.758 119.281 365.508 119.046C365.248 118.798 364.966 118.561 364.668 118.332C364.369 118.103 364.037 117.869 363.7 117.654C363.362 117.438 362.991 117.223 362.605 117.017C362.22 116.812 361.806 116.612 361.39 116.428C360.973 116.245 360.524 116.061 360.055 115.889C359.587 115.717 359.119 115.564 358.637 115.421C358.155 115.278 357.673 115.149 357.178 115.032C356.684 114.914 356.192 114.813 355.691 114.722C355.19 114.631 354.686 114.556 354.181 114.489C353.691 114.427 353.18 114.375 352.66 114.334C352.14 114.294 351.635 114.268 351.14 114.251C350.866 114.252 350.58 114.249 350.294 114.249H350.298Z" fill="#F7EFFF"/>
<path fill-rule="evenodd" clip-rule="evenodd" d="M49.7775 194.705C55.8075 190.942 62.7884 188.984 69.8956 189.062C77.0028 189.139 83.9392 191.25 89.8857 195.143C95.8321 199.036 100.54 204.55 103.454 211.033C106.367 217.516 107.364 224.697 106.327 231.729C105.492 237.373 103.04 241.439 99.9453 246.569L99.9396 246.579C99.1032 247.964 98.2206 249.429 97.3107 251.022C93.0273 258.52 94.5008 269.81 97.4206 279.634C98.2933 282.569 100.302 287.32 102.738 293.088V293.092C107.436 304.212 113.725 319.096 116.527 331.959C120.749 351.344 121.288 388.983 120.794 392.64C120.789 392.677 120.786 392.708 120.784 392.741C120.782 392.773 120.784 392.789 120.784 392.817C120.784 403.087 98.033 411.411 69.973 411.411H68.978C40.9148 411.411 18.1639 403.087 18.1639 392.816C18.1643 392.757 18.1605 392.698 18.1523 392.639C17.6564 388.982 18.1969 351.343 22.4192 331.958C25.2208 319.095 31.5099 304.211 36.2082 293.092V293.087C38.6446 287.321 40.6528 282.568 41.5255 279.633C44.4478 269.81 45.9205 258.52 41.6371 251.022C40.728 249.429 39.8437 247.964 39.0082 246.579L39.0024 246.569C35.9074 241.439 33.4554 237.373 32.6207 231.729C31.5603 224.557 32.6194 217.231 35.6676 210.653C38.7157 204.076 43.6201 198.532 49.7775 194.705Z" fill="url(#paint1_linear_524_2211)"/>
<defs>
<linearGradient id="paint0_linear_524_2211" x1="310.891" y1="220.891" x2="389.701" y2="455.677" gradientUnits="userSpaceOnUse">
<stop stop-color="#6C26E6"/>
<stop offset="1" stop-color="#FB7EFF"/>
</linearGradient>
<linearGradient id="paint1_linear_524_2211" x1="18" y1="300.236" x2="194.757" y2="300.236" gradientUnits="userSpaceOnUse">
<stop stop-color="#6C26E6"/>
<stop offset="1" stop-color="#FB7EFF"/>
</linearGradient>
</defs>
</svg>
