<svg width="556" height="556" viewBox="0 0 556 556" fill="none" xmlns="http://www.w3.org/2000/svg">
<path d="M320.518 514.001C313.944 514.001 307.455 512.53 301.525 509.693L174.484 448.936H174.495C174.482 448.932 174.468 448.926 174.455 448.92L174.345 448.871L174.154 448.78C173.213 448.313 171.02 447.013 170.993 445.008C171.45 436.328 171.352 416.856 165.566 383.969C162.589 368.366 155.278 351.548 149.939 339.268L149.929 339.243C147.279 333.152 145.185 328.341 144.247 325.161C142.969 321.139 142.216 316.969 142.009 312.754C141.636 305.287 143.804 297.914 148.161 291.838L148.166 291.83L148.186 291.797C148.291 291.638 148.448 291.4 148.589 291.179C150.325 288.569 152.362 286.172 154.657 284.038C158.438 280.525 162.465 277.287 166.707 274.348L310.543 211.812C313.689 210.444 317.082 209.738 320.512 209.738C323.942 209.738 327.336 210.444 330.481 211.812L498.965 285.067C503.433 287.008 507.238 290.213 509.909 294.288C512.58 298.363 514.003 303.129 514 308.002V410.483C513.994 415.195 512.655 419.809 510.14 423.794C507.625 427.778 504.035 430.971 499.784 433.003L339.508 509.693C333.578 512.528 327.089 514 320.517 514L320.518 514.001ZM320.512 234.89C318.597 234.887 316.701 235.279 314.944 236.041L184.188 292.895C182.53 293.617 181.12 294.806 180.129 296.318C179.139 297.83 178.61 299.598 178.61 301.405C178.61 303.213 179.139 304.981 180.129 306.492C181.12 308.004 182.53 309.194 184.188 309.915L314.944 366.769C316.702 367.529 318.597 367.921 320.513 367.921C322.428 367.921 324.322 367.529 326.08 366.769L456.834 309.915C458.493 309.196 459.905 308.008 460.898 306.497C461.89 304.986 462.42 303.219 462.422 301.411C462.424 299.604 461.898 297.835 460.909 296.322C459.92 294.809 458.51 293.618 456.853 292.895L326.079 236.041C324.321 235.279 322.426 234.887 320.51 234.889L320.512 234.89Z" fill="url(#paint0_linear_524_2216)"/>
<path d="M320.509 311.462C318.502 311.464 316.516 311.05 314.677 310.244L177.726 250.696C175.99 249.941 174.512 248.696 173.474 247.112C172.436 245.529 171.883 243.677 171.884 241.784C171.883 239.89 172.436 238.038 173.474 236.455C174.512 234.872 175.99 233.626 177.726 232.871L310.309 175.213L310.492 175.274C310.965 175.429 311.458 175.572 311.958 175.701C312.459 175.83 312.968 175.943 313.478 176.042C313.989 176.14 314.515 176.228 315.038 176.298C315.561 176.369 316.091 176.426 316.625 176.467C317.159 176.507 317.698 176.54 318.227 176.551C318.525 176.56 318.828 176.564 319.128 176.564C319.353 176.564 319.589 176.564 319.832 176.556C320.363 176.544 320.9 176.518 321.43 176.479C321.96 176.439 322.482 176.387 323.001 176.32C323.52 176.254 324.038 176.173 324.536 176.082C325.034 175.991 325.546 175.882 326.023 175.764C326.501 175.647 326.986 175.512 327.453 175.369C327.921 175.226 328.374 175.065 328.806 174.897C329.015 174.813 329.227 174.729 329.424 174.645L463.315 232.855C465.051 233.609 466.529 234.855 467.567 236.438C468.605 238.021 469.158 239.874 469.157 241.767C469.158 243.66 468.605 245.512 467.567 247.096C466.529 248.679 465.051 249.924 463.315 250.679L326.345 310.24C324.506 311.047 322.518 311.463 320.509 311.462Z" fill="#DEB9FF"/>
<path d="M320.509 242.122C318.502 242.124 316.516 241.71 314.677 240.904L177.726 181.356C175.99 180.601 174.512 179.356 173.474 177.772C172.436 176.189 171.884 174.337 171.884 172.444C171.883 170.55 172.436 168.698 173.474 167.115C174.512 165.532 175.99 164.286 177.726 163.531L314.677 103.97C316.516 103.166 318.502 102.751 320.509 102.754C322.516 102.751 324.502 103.166 326.34 103.97L463.291 163.531C465.027 164.286 466.505 165.532 467.543 167.115C468.581 168.698 469.133 170.55 469.133 172.444C469.133 174.337 468.581 176.189 467.543 177.772C466.505 179.356 465.027 180.601 463.291 181.356L326.34 240.904C324.501 241.709 322.516 242.124 320.509 242.122ZM259.064 159.959C258.836 159.959 258.607 159.959 258.383 159.966C257.87 159.976 257.35 160.001 256.837 160.037C256.324 160.073 255.813 160.121 255.301 160.184C254.79 160.247 254.28 160.32 253.787 160.405C253.294 160.491 252.788 160.59 252.3 160.7C251.811 160.81 251.33 160.933 250.853 161.068C250.375 161.204 249.916 161.349 249.457 161.51C248.998 161.671 248.556 161.84 248.124 162.024C247.691 162.207 247.263 162.407 246.862 162.613C246.46 162.819 246.063 163.04 245.684 163.272C245.305 163.503 244.954 163.743 244.629 163.986C244.304 164.228 244.001 164.48 243.725 164.734C243.458 164.977 243.205 165.236 242.968 165.509C242.749 165.762 242.546 166.028 242.361 166.307C242.19 166.567 242.037 166.84 241.905 167.122C241.781 167.388 241.679 167.664 241.6 167.946C241.524 168.218 241.472 168.495 241.445 168.776C241.418 169.051 241.416 169.328 241.441 169.604C241.465 169.881 241.514 170.156 241.587 170.425C241.663 170.702 241.763 170.971 241.886 171.231C242.015 171.504 242.166 171.767 242.337 172.016C242.519 172.283 242.721 172.536 242.939 172.774C243.176 173.031 243.429 173.274 243.696 173.499C243.985 173.745 244.288 173.974 244.603 174.185C244.932 174.407 245.289 174.623 245.662 174.825C246.036 175.026 246.448 175.227 246.873 175.413C247.299 175.6 247.743 175.769 248.204 175.928C248.651 176.082 249.129 176.226 249.612 176.356C250.095 176.487 250.585 176.599 251.085 176.699C251.585 176.799 252.094 176.885 252.611 176.955C253.127 177.026 253.652 177.085 254.177 177.128C254.682 177.17 255.222 177.2 255.772 177.216C256.075 177.225 256.376 177.229 256.664 177.229C256.892 177.229 257.127 177.229 257.379 177.22C257.913 177.209 258.455 177.183 258.989 177.143C259.524 177.103 260.063 177.051 260.588 176.984C261.113 176.918 261.643 176.837 262.163 176.744C262.682 176.652 263.202 176.543 263.701 176.425C264.2 176.308 264.701 176.173 265.188 176.029C265.676 175.885 266.162 175.722 266.619 175.556C267.086 175.387 267.544 175.2 267.971 175.007C268.399 174.814 268.834 174.602 269.238 174.384C269.643 174.165 270.041 173.929 270.406 173.689C270.771 173.449 271.115 173.201 271.439 172.942C271.743 172.698 272.034 172.439 272.311 172.164C272.564 171.913 272.801 171.646 273.021 171.364C273.225 171.105 273.41 170.832 273.575 170.548C273.728 170.282 273.861 170.006 273.971 169.72C274.075 169.45 274.156 169.172 274.213 168.889C274.269 168.615 274.299 168.338 274.304 168.059C274.309 167.784 274.289 167.509 274.243 167.237C274.198 166.962 274.128 166.692 274.035 166.43C273.938 166.158 273.819 165.894 273.679 165.641C273.53 165.376 273.361 165.121 273.175 164.88C272.976 164.622 272.761 164.378 272.529 164.149C272.281 163.902 272.019 163.671 271.744 163.455C271.447 163.222 271.139 163.004 270.819 162.803C270.489 162.594 270.131 162.392 269.754 162.2C269.377 162.008 268.971 161.821 268.55 161.649C268.13 161.476 267.683 161.312 267.241 161.168C266.8 161.025 266.339 160.89 265.867 160.77C265.411 160.653 264.93 160.547 264.437 160.453C263.944 160.36 263.453 160.28 262.963 160.215C262.474 160.15 261.966 160.096 261.455 160.055C260.943 160.015 260.431 159.989 259.925 159.971C259.641 159.963 259.351 159.959 259.064 159.959ZM318.986 159.364C318.764 159.364 318.535 159.364 318.306 159.371C317.793 159.382 317.278 159.406 316.776 159.442C316.274 159.478 315.767 159.526 315.262 159.589C314.757 159.651 314.265 159.724 313.78 159.809C313.296 159.894 312.816 159.991 312.34 160.103C311.864 160.214 311.393 160.338 310.95 160.47C310.488 160.607 310.042 160.755 309.624 160.91C309.187 161.071 308.765 161.247 308.369 161.422C307.972 161.598 307.567 161.804 307.198 162.007C306.828 162.211 306.462 162.434 306.123 162.663C305.795 162.884 305.478 163.122 305.174 163.375C304.896 163.608 304.631 163.857 304.382 164.12C304.152 164.363 303.938 164.621 303.743 164.893C303.561 165.145 303.398 165.411 303.255 165.688C303.121 165.948 303.009 166.22 302.919 166.499C302.834 166.767 302.772 167.042 302.735 167.32C302.698 167.594 302.687 167.871 302.701 168.147C302.715 168.425 302.754 168.701 302.817 168.972C302.884 169.251 302.973 169.525 303.084 169.79C303.204 170.068 303.344 170.336 303.505 170.593C303.674 170.867 303.862 171.129 304.068 171.377C304.29 171.643 304.528 171.896 304.78 172.134C305.053 172.39 305.34 172.631 305.639 172.857C305.946 173.089 306.284 173.319 306.648 173.542C307.013 173.765 307.397 173.978 307.798 174.179C308.2 174.38 308.646 174.582 309.092 174.763C309.538 174.944 310.017 175.121 310.494 175.275C310.971 175.43 311.46 175.574 311.961 175.703C312.461 175.831 312.97 175.945 313.481 176.039C313.979 176.136 314.504 176.223 315.041 176.296C315.56 176.367 316.094 176.424 316.627 176.464C317.161 176.504 317.704 176.537 318.23 176.548C318.525 176.557 318.828 176.562 319.13 176.562C319.356 176.562 319.593 176.562 319.834 176.553C320.365 176.541 320.902 176.515 321.433 176.476C321.963 176.436 322.485 176.383 323.003 176.317C323.521 176.25 324.042 176.17 324.538 176.078C325.035 175.986 325.538 175.88 326.026 175.761C326.514 175.641 326.992 175.508 327.456 175.365C327.92 175.222 328.376 175.062 328.809 174.894C329.241 174.725 329.673 174.54 330.078 174.347C330.483 174.153 330.882 173.942 331.249 173.727C331.617 173.511 331.978 173.276 332.312 173.034C332.632 172.803 332.939 172.554 333.232 172.289C333.5 172.047 333.753 171.788 333.989 171.514C334.204 171.262 334.401 170.996 334.578 170.717C334.743 170.457 334.887 170.184 335.01 169.901C335.125 169.635 335.217 169.36 335.285 169.078C335.35 168.806 335.39 168.529 335.406 168.249C335.42 167.973 335.409 167.696 335.374 167.422C335.338 167.145 335.277 166.871 335.194 166.604C335.106 166.327 334.997 166.058 334.867 165.799C334.73 165.526 334.572 165.264 334.397 165.014C334.21 164.749 334.005 164.496 333.785 164.257C333.55 164 333.299 163.757 333.036 163.528C332.753 163.283 332.457 163.051 332.15 162.836C331.834 162.613 331.491 162.394 331.131 162.187C330.772 161.98 330.374 161.772 329.981 161.586C329.587 161.399 329.139 161.208 328.699 161.036C328.258 160.865 327.791 160.7 327.323 160.558C326.855 160.415 326.374 160.277 325.893 160.161C325.412 160.044 324.909 159.934 324.421 159.844C323.933 159.754 323.427 159.676 322.917 159.607C322.406 159.538 321.895 159.487 321.39 159.448C320.884 159.408 320.359 159.382 319.85 159.364C319.56 159.368 319.273 159.364 318.986 159.364ZM379.259 158.994C379.036 158.994 378.811 158.994 378.586 159C378.081 159.011 377.568 159.035 377.072 159.071C376.575 159.107 376.062 159.155 375.586 159.218C375.092 159.279 374.606 159.352 374.14 159.436C373.674 159.52 373.209 159.618 372.746 159.729C372.282 159.84 371.841 159.963 371.413 160.096C370.986 160.229 370.558 160.378 370.151 160.535C369.745 160.692 369.344 160.871 368.974 161.046C368.592 161.231 368.227 161.428 367.892 161.63C367.555 161.832 367.23 162.05 366.916 162.286C366.622 162.505 366.341 162.742 366.075 162.995C365.831 163.227 365.604 163.475 365.393 163.738C365.199 163.98 365.023 164.238 364.868 164.508C364.723 164.762 364.6 165.027 364.499 165.301C364.403 165.564 364.331 165.835 364.284 166.111C364.238 166.381 364.217 166.656 364.221 166.93C364.224 167.207 364.253 167.483 364.306 167.755C364.362 168.036 364.442 168.311 364.544 168.578C364.652 168.859 364.782 169.132 364.932 169.393C365.091 169.673 365.269 169.94 365.465 170.195C365.675 170.469 365.902 170.73 366.143 170.977C366.404 171.243 366.679 171.496 366.966 171.734C367.258 171.977 367.583 172.22 367.93 172.456C368.276 172.693 368.65 172.922 369.034 173.138C369.431 173.361 369.848 173.575 370.275 173.774C370.702 173.972 371.177 174.174 371.651 174.357C372.126 174.539 372.626 174.712 373.126 174.867C373.627 175.023 374.14 175.166 374.653 175.293C375.166 175.42 375.69 175.534 376.22 175.634C376.75 175.734 377.276 175.817 377.818 175.886C378.343 175.956 378.885 176.014 379.427 176.054C379.97 176.095 380.51 176.128 381.039 176.139C381.326 176.147 381.618 176.151 381.931 176.151C382.183 176.151 382.415 176.151 382.64 176.144C383.172 176.131 383.702 176.105 384.219 176.066C384.735 176.027 385.268 175.973 385.764 175.908C386.259 175.843 386.773 175.763 387.261 175.67C387.749 175.577 388.227 175.472 388.698 175.354C389.169 175.235 389.635 175.101 390.063 174.959C390.491 174.817 390.93 174.659 391.344 174.489C391.758 174.319 392.162 174.132 392.529 173.943C392.908 173.749 393.271 173.54 393.607 173.324C393.938 173.112 394.258 172.881 394.565 172.633C394.85 172.403 395.12 172.155 395.374 171.89C395.605 171.648 395.819 171.39 396.013 171.118C396.193 170.866 396.351 170.6 396.487 170.322C396.615 170.061 396.719 169.79 396.798 169.51C396.875 169.241 396.926 168.966 396.951 168.688C396.977 168.413 396.977 168.136 396.951 167.861C396.924 167.582 396.873 167.306 396.798 167.036C396.72 166.757 396.619 166.484 396.497 166.22C396.369 165.942 396.22 165.674 396.053 165.418C395.873 165.144 395.677 164.883 395.464 164.634C395.238 164.369 394.996 164.116 394.741 163.877C394.477 163.625 394.19 163.383 393.886 163.15C393.582 162.917 393.244 162.679 392.901 162.46C392.557 162.24 392.18 162.021 391.787 161.812C391.394 161.602 390.973 161.399 390.549 161.212C390.125 161.025 389.668 160.839 389.191 160.664C388.714 160.489 388.238 160.332 387.747 160.187C387.257 160.041 386.766 159.91 386.262 159.79C385.759 159.671 385.258 159.567 384.748 159.475C384.238 159.382 383.725 159.307 383.211 159.239C382.713 159.175 382.192 159.122 381.663 159.08C381.134 159.039 380.62 159.013 380.116 158.996C379.837 158.997 379.546 158.994 379.255 158.994H379.259Z" fill="#F7EFFF"/>
<path fill-rule="evenodd" clip-rule="evenodd" d="M73.3474 240.893C79.4857 237.063 86.5918 235.07 93.8264 235.149C101.061 235.228 108.122 237.376 114.175 241.339C120.228 245.302 125.021 250.915 127.986 257.514C130.952 264.113 131.967 271.423 130.911 278.581C130.062 284.327 127.566 288.465 124.415 293.688L124.409 293.698C123.558 295.108 122.659 296.598 121.733 298.22C117.373 305.853 118.873 317.345 121.845 327.345C122.733 330.333 124.778 335.169 127.258 341.04V341.045C132.04 352.365 138.442 367.516 141.294 380.609C145.592 400.341 146.141 438.656 145.638 442.378C145.633 442.416 145.629 442.448 145.627 442.481C145.626 442.514 145.627 442.531 145.627 442.558C145.627 453.013 122.468 461.487 93.9053 461.487H92.8924C64.3258 461.486 41.1668 453.013 41.1668 442.557C41.1673 442.497 41.1634 442.437 41.155 442.377C40.6503 438.655 41.2004 400.341 45.4984 380.608C48.3503 367.515 54.7523 352.364 59.5348 341.045V341.039C62.0148 335.17 64.0591 330.332 64.9475 327.345C67.9222 317.345 69.4213 305.853 65.061 298.22C64.1357 296.598 63.2355 295.108 62.385 293.698L62.3791 293.688C59.2286 288.465 56.7326 284.327 55.8829 278.581C54.8035 271.281 55.8816 263.824 58.9844 257.128C62.0873 250.432 67.0797 244.789 73.3474 240.893Z" fill="url(#paint1_linear_524_2216)"/>
<defs>
<linearGradient id="paint0_linear_524_2216" x1="339.145" y1="267.548" x2="419.368" y2="506.546" gradientUnits="userSpaceOnUse">
<stop stop-color="#6C26E6"/>
<stop offset="1" stop-color="#FB7EFF"/>
</linearGradient>
<linearGradient id="paint1_linear_524_2216" x1="41" y1="348.317" x2="220.928" y2="348.317" gradientUnits="userSpaceOnUse">
<stop stop-color="#6C26E6"/>
<stop offset="1" stop-color="#FB7EFF"/>
</linearGradient>
</defs>
</svg>
