<svg width="500" height="500" viewBox="0 0 500 500" fill="none" xmlns="http://www.w3.org/2000/svg">
<path d="M283.395 252.064C281.837 252.066 280.295 251.745 278.867 251.12L172.522 204.879C171.174 204.292 170.026 203.325 169.221 202.096C168.415 200.866 167.985 199.428 167.985 197.958C167.985 196.488 168.415 195.05 169.221 193.821C170.026 192.592 171.174 191.624 172.522 191.038L189.656 183.579L278.867 222.376C280.296 222.998 281.837 223.32 283.395 223.32C284.954 223.32 286.495 222.998 287.923 222.376L377.146 183.579L394.283 191.03C395.631 191.616 396.778 192.583 397.584 193.813C398.39 195.042 398.819 196.48 398.819 197.95C398.819 199.42 398.39 200.858 397.584 202.087C396.778 203.317 395.631 204.284 394.283 204.87L287.923 251.118C286.496 251.744 284.954 252.066 283.395 252.064Z" fill="#F7EFFF"/>
<path d="M283.395 198.221C281.837 198.223 280.295 197.901 278.867 197.276L172.522 151.035C171.174 150.449 170.026 149.481 169.221 148.252C168.415 147.023 167.985 145.585 167.985 144.115C167.985 142.645 168.415 141.207 169.221 139.977C170.026 138.748 171.174 137.781 172.522 137.194L278.867 90.9447C280.296 90.3216 281.837 90 283.395 90C284.954 90 286.495 90.3216 287.923 90.9447L394.268 137.193C395.616 137.779 396.763 138.747 397.569 139.976C398.375 141.205 398.804 142.643 398.804 144.113C398.804 145.583 398.375 147.021 397.569 148.251C396.763 149.48 395.616 150.447 394.268 151.034L287.923 197.272C286.496 197.898 284.954 198.221 283.395 198.221ZM235.688 134.418C235.511 134.418 235.332 134.418 235.158 134.418C234.766 134.427 234.363 134.445 233.958 134.474C233.554 134.503 233.156 134.541 232.766 134.587C232.375 134.633 231.968 134.693 231.588 134.759C231.209 134.824 230.813 134.898 230.433 134.987C230.054 135.077 229.681 135.167 229.31 135.273C228.939 135.379 228.582 135.492 228.226 135.617C227.871 135.741 227.519 135.876 227.191 136.016C226.864 136.155 226.52 136.314 226.215 136.472C225.909 136.629 225.591 136.805 225.303 136.984C225.014 137.162 224.735 137.349 224.484 137.542C224.233 137.734 223.993 137.928 223.786 138.122C223.579 138.311 223.383 138.513 223.199 138.725C223.029 138.921 222.872 139.128 222.729 139.344C222.596 139.546 222.477 139.758 222.375 139.977C222.278 140.184 222.199 140.398 222.138 140.618C222.079 140.828 222.039 141.044 222.018 141.262C221.976 141.692 222.013 142.126 222.128 142.543C222.187 142.758 222.264 142.967 222.359 143.169C222.46 143.381 222.577 143.586 222.709 143.78C222.852 143.987 223.008 144.184 223.178 144.369C223.362 144.567 223.558 144.753 223.765 144.927C223.988 145.117 224.221 145.295 224.463 145.459C224.718 145.631 224.996 145.798 225.286 145.956C225.576 146.114 225.902 146.271 226.228 146.411C226.553 146.55 226.898 146.69 227.26 146.81C227.621 146.93 227.973 147.041 228.353 147.143C228.734 147.245 229.112 147.333 229.497 147.41C229.882 147.486 230.28 147.549 230.683 147.609C231.086 147.669 231.48 147.708 231.899 147.749C232.319 147.789 232.727 147.806 233.137 147.817C233.375 147.817 233.61 147.827 233.834 147.827C234.01 147.827 234.19 147.827 234.384 147.827C234.802 147.817 235.221 147.797 235.639 147.767C236.058 147.736 236.476 147.694 236.882 147.642C237.288 147.591 237.709 147.528 238.104 147.457C238.499 147.386 238.902 147.302 239.298 147.21C239.694 147.118 240.085 147.012 240.455 146.902C240.824 146.792 241.211 146.663 241.562 146.535C241.914 146.407 242.276 146.256 242.613 146.108C242.949 145.96 243.277 145.797 243.589 145.625C243.902 145.454 244.208 145.274 244.496 145.086C244.783 144.897 245.054 144.705 245.298 144.505C245.534 144.316 245.76 144.115 245.974 143.901C246.173 143.706 246.359 143.499 246.532 143.28C246.69 143.079 246.834 142.867 246.962 142.646C247.081 142.44 247.184 142.225 247.27 142.003C247.351 141.793 247.414 141.577 247.459 141.357C247.501 141.145 247.524 140.929 247.528 140.712C247.532 140.499 247.516 140.286 247.481 140.075C247.445 139.861 247.391 139.651 247.319 139.447C247.243 139.236 247.149 139.031 247.04 138.835C246.925 138.628 246.795 138.43 246.651 138.243C246.497 138.043 246.329 137.854 246.15 137.676C245.958 137.484 245.754 137.304 245.541 137.136C245.31 136.955 245.069 136.786 244.821 136.629C244.568 136.469 244.289 136.311 243.994 136.161C243.698 136.01 243.392 135.87 243.059 135.734C242.726 135.597 242.387 135.473 242.043 135.361C241.7 135.25 241.333 135.144 240.976 135.052C240.619 134.96 240.248 134.879 239.86 134.805C239.473 134.731 239.097 134.665 238.715 134.621C238.333 134.576 237.937 134.527 237.545 134.496C237.153 134.466 236.754 134.443 236.356 134.432C236.129 134.421 235.904 134.418 235.681 134.418H235.688ZM282.219 133.957C282.047 133.957 281.869 133.957 281.692 133.957C281.303 133.965 280.903 133.983 280.504 134.012C280.105 134.042 279.728 134.077 279.331 134.125C278.933 134.174 278.559 134.23 278.181 134.297C277.803 134.364 277.433 134.436 277.065 134.524C276.697 134.612 276.338 134.706 275.987 134.803C275.635 134.901 275.28 135.025 274.956 135.145C274.632 135.265 274.285 135.406 273.98 135.543C273.674 135.679 273.362 135.836 273.07 135.996C272.778 136.156 272.499 136.327 272.233 136.505C271.978 136.678 271.733 136.865 271.498 137.063C271.281 137.243 271.075 137.436 270.881 137.641C270.703 137.83 270.537 138.03 270.385 138.241C270.244 138.436 270.117 138.643 270.007 138.857C269.902 139.06 269.815 139.271 269.746 139.488C269.681 139.696 269.634 139.909 269.606 140.125C269.578 140.338 269.569 140.553 269.58 140.767C269.591 140.982 269.621 141.197 269.671 141.407C269.721 141.624 269.79 141.836 269.877 142.042C269.968 142.258 270.076 142.466 270.199 142.665C270.331 142.878 270.477 143.081 270.637 143.274C270.811 143.48 270.997 143.677 271.195 143.861C271.407 144.059 271.63 144.245 271.862 144.419C272.106 144.603 272.37 144.781 272.643 144.949C272.917 145.116 273.225 145.288 273.536 145.444C273.847 145.6 274.186 145.754 274.54 145.897C274.895 146.041 275.252 146.176 275.628 146.295C276.005 146.414 276.373 146.525 276.768 146.627C277.163 146.729 277.549 146.814 277.948 146.892C278.347 146.97 278.739 147.032 279.159 147.091C279.579 147.151 279.975 147.191 280.392 147.231C280.809 147.271 281.229 147.288 281.636 147.299C281.867 147.306 282.101 147.31 282.334 147.31C282.514 147.31 282.692 147.31 282.881 147.31C283.292 147.301 283.708 147.281 284.119 147.251C284.531 147.22 284.937 147.178 285.34 147.128C285.743 147.078 286.145 147.013 286.533 146.942C286.92 146.871 287.312 146.787 287.688 146.695C288.063 146.603 288.438 146.5 288.795 146.388C289.152 146.277 289.51 146.153 289.846 146.022C290.182 145.89 290.515 145.743 290.831 145.603C291.146 145.464 291.453 145.289 291.74 145.122C292.027 144.954 292.308 144.77 292.564 144.583C292.813 144.404 293.052 144.21 293.28 144.004C293.488 143.817 293.684 143.616 293.867 143.403C294.035 143.208 294.189 143.001 294.328 142.784C294.456 142.582 294.569 142.371 294.664 142.152C294.753 141.945 294.824 141.731 294.877 141.512C294.928 141.301 294.959 141.085 294.971 140.869C294.983 140.654 294.975 140.44 294.947 140.227C294.919 140.011 294.872 139.799 294.808 139.591C294.74 139.376 294.655 139.167 294.554 138.966C294.447 138.754 294.325 138.55 294.188 138.356C294.043 138.15 293.885 137.952 293.714 137.766C293.531 137.567 293.337 137.378 293.132 137.201C292.912 137.011 292.683 136.832 292.444 136.664C292.193 136.487 291.927 136.318 291.652 136.161C291.377 136.003 291.069 135.84 290.758 135.692C290.447 135.544 290.105 135.399 289.763 135.266C289.422 135.134 289.056 135.007 288.695 134.895C288.334 134.784 287.969 134.682 287.579 134.587C287.188 134.492 286.823 134.413 286.436 134.342C286.05 134.27 285.665 134.209 285.269 134.157C284.873 134.106 284.475 134.065 284.082 134.033C283.688 134.001 283.294 133.982 282.888 133.971C282.658 133.961 282.433 133.957 282.213 133.957H282.219ZM329.027 133.669C328.851 133.669 328.674 133.669 328.501 133.669C328.118 133.678 327.721 133.696 327.324 133.724C326.926 133.752 326.547 133.789 326.169 133.837C325.791 133.884 325.413 133.941 325.053 134.007C324.693 134.072 324.322 134.146 323.97 134.234C323.619 134.322 323.273 134.414 322.937 134.513C322.601 134.612 322.27 134.732 321.96 134.854C321.651 134.975 321.338 135.109 321.048 135.25C320.758 135.391 320.469 135.545 320.211 135.703C319.949 135.859 319.696 136.029 319.452 136.212C319.224 136.383 319.006 136.567 318.799 136.763C318.61 136.943 318.433 137.135 318.269 137.339C318.119 137.528 317.982 137.728 317.862 137.938C317.749 138.134 317.654 138.34 317.576 138.553C317.501 138.757 317.445 138.968 317.409 139.182C317.373 139.392 317.356 139.605 317.36 139.818C317.363 140.033 317.386 140.248 317.428 140.458C317.472 140.676 317.534 140.89 317.614 141.097C317.698 141.316 317.798 141.527 317.914 141.731C318.039 141.947 318.179 142.155 318.332 142.353C318.496 142.565 318.672 142.768 318.859 142.96C319.062 143.166 319.275 143.361 319.498 143.546C319.733 143.738 319.984 143.926 320.247 144.104C320.511 144.281 320.805 144.468 321.105 144.632C321.405 144.797 321.732 144.968 322.069 145.126C322.407 145.284 322.767 145.438 323.138 145.578C323.509 145.717 323.899 145.857 324.283 145.976C324.666 146.094 325.06 146.204 325.469 146.306C325.877 146.408 326.275 146.493 326.685 146.571C327.095 146.649 327.504 146.711 327.924 146.769C328.344 146.828 328.75 146.868 329.179 146.909C329.609 146.949 330.016 146.965 330.435 146.976C330.656 146.976 330.881 146.985 331.124 146.985C331.329 146.985 331.51 146.985 331.682 146.985C332.088 146.976 332.501 146.956 332.908 146.925C333.315 146.895 333.713 146.854 334.108 146.803C334.502 146.751 334.889 146.69 335.271 146.619C335.653 146.547 336.019 146.465 336.387 146.373C336.755 146.281 337.104 146.178 337.447 146.066C337.79 145.955 338.128 145.829 338.442 145.701C338.756 145.572 339.065 145.43 339.362 145.282C339.659 145.134 339.934 144.973 340.199 144.802C340.457 144.637 340.706 144.458 340.944 144.267C341.165 144.088 341.375 143.895 341.572 143.689C341.752 143.502 341.918 143.301 342.069 143.089C342.208 142.894 342.331 142.687 342.437 142.471C342.536 142.269 342.616 142.058 342.678 141.841C342.796 141.425 342.835 140.991 342.795 140.56C342.774 140.344 342.734 140.13 342.675 139.921C342.615 139.704 342.536 139.492 342.441 139.287C342.341 139.071 342.226 138.863 342.096 138.663C341.958 138.451 341.807 138.248 341.643 138.055C341.468 137.849 341.282 137.652 341.085 137.466C340.883 137.275 340.66 137.085 340.421 136.908C340.183 136.731 339.924 136.544 339.655 136.373C339.386 136.201 339.097 136.032 338.79 135.869C338.483 135.706 338.16 135.55 337.829 135.403C337.499 135.257 337.132 135.107 336.775 134.985C336.418 134.862 336.035 134.727 335.659 134.614C335.282 134.501 334.887 134.396 334.505 134.307C334.123 134.217 333.723 134.132 333.328 134.061C332.933 133.99 332.535 133.929 332.135 133.877C331.735 133.825 331.329 133.784 330.933 133.754C330.536 133.725 330.137 133.703 329.732 133.692C329.467 133.672 329.242 133.662 329.02 133.662L329.027 133.669Z" fill="#F7EFFF"/>
<path d="M283.401 409.338C278.296 409.337 273.257 408.194 268.652 405.99L170.004 358.814H170.014L169.991 358.806H169.983L169.898 358.768L169.75 358.697C169.019 358.334 167.316 357.323 167.295 355.768C167.649 349.027 167.574 333.907 163.081 308.37C160.768 296.252 155.088 283.19 150.945 273.654L150.936 273.634C149.282 270.066 147.809 266.416 146.524 262.699C145.532 259.576 144.947 256.338 144.786 253.066C144.496 247.268 146.181 241.544 149.564 236.827L149.579 236.802C149.677 236.654 149.788 236.484 149.893 236.322C151.241 234.296 152.823 232.435 154.605 230.777C157.541 228.05 160.668 225.535 163.962 223.253L212.614 202.093L235.959 212.244L177.546 237.646C176.259 238.205 175.163 239.129 174.393 240.303C173.623 241.477 173.213 242.85 173.213 244.254C173.213 245.658 173.623 247.031 174.393 248.205C175.163 249.379 176.259 250.302 177.546 250.862L279.072 295.011C280.438 295.6 281.909 295.904 283.397 295.904C284.884 295.904 286.355 295.6 287.721 295.011L389.254 250.862C390.542 250.303 391.638 249.381 392.409 248.208C393.18 247.035 393.591 245.662 393.593 244.259C393.594 242.855 393.186 241.482 392.418 240.307C391.65 239.132 390.556 238.207 389.269 237.646L330.838 212.242L354.181 202.093L421.975 231.568C425.446 233.075 428.4 235.564 430.474 238.728C432.549 241.892 433.653 245.594 433.651 249.377V328.955C433.646 332.615 432.606 336.198 430.653 339.292C428.699 342.386 425.911 344.865 422.61 346.444L298.152 405.994C293.548 408.198 288.509 409.341 283.405 409.342L283.401 409.338Z" fill="#F7EFFF"/>
<path fill-rule="evenodd" clip-rule="evenodd" d="M91.4708 197.528C96.2373 194.554 101.755 193.006 107.373 193.067C112.991 193.128 118.474 194.796 123.175 197.874C127.875 200.951 131.597 205.31 133.9 210.435C136.202 215.559 136.991 221.236 136.171 226.794C135.511 231.258 133.573 234.466 131.127 238.524V238.531C130.465 239.626 129.768 240.783 129.048 242.042C125.662 247.969 126.826 256.893 129.135 264.659C129.824 266.978 131.411 270.735 133.338 275.292C137.051 284.081 142.022 295.847 144.238 306.015C147.576 321.337 148.004 351.09 147.611 353.98C147.611 354.009 147.611 354.035 147.602 354.06C147.594 354.085 147.602 354.099 147.602 354.12C147.602 362.238 129.619 368.818 107.439 368.818H106.644C84.464 368.818 66.4802 362.237 66.4802 354.12C66.4804 354.073 66.4771 354.026 66.4705 353.98C66.0799 351.09 66.5053 321.338 69.8435 306.015C72.0587 295.847 77.0289 284.082 80.7422 275.292C82.6687 270.735 84.2547 266.977 84.9452 264.659C87.2539 256.893 88.4187 247.969 85.0317 242.042C84.3119 240.787 83.6144 239.626 82.9532 238.531V238.524C80.5065 234.469 78.5689 231.256 77.9077 226.794C77.0697 221.125 77.9071 215.334 80.3168 210.135C82.7265 204.935 86.6035 200.553 91.4708 197.528Z" fill="#F7EFFF"/>
</svg>
