<svg width="706" height="125" viewBox="0 0 706 125" fill="none" xmlns="http://www.w3.org/2000/svg">
<rect width="706" height="125" rx="8" fill="#F3F3F3"/>
<rect x="245" y="26" width="216" height="72" rx="10" fill="#DCDCDC"/>
<path d="M279.461 70V52.8203H281.734V70H279.461ZM300.285 68.4648C299.504 69.1289 298.75 69.5977 298.023 69.8711C297.305 70.1445 296.531 70.2812 295.703 70.2812C294.336 70.2812 293.285 69.9492 292.551 69.2852C291.816 68.6133 291.449 67.7578 291.449 66.7188C291.449 66.1094 291.586 65.5547 291.859 65.0547C292.141 64.5469 292.504 64.1406 292.949 63.8359C293.402 63.5312 293.91 63.3008 294.473 63.1445C294.887 63.0352 295.512 62.9297 296.348 62.8281C298.051 62.625 299.305 62.3828 300.109 62.1016C300.117 61.8125 300.121 61.6289 300.121 61.5508C300.121 60.6914 299.922 60.0859 299.523 59.7344C298.984 59.2578 298.184 59.0195 297.121 59.0195C296.129 59.0195 295.395 59.1953 294.918 59.5469C294.449 59.8906 294.102 60.5039 293.875 61.3867L291.812 61.1055C292 60.2227 292.309 59.5117 292.738 58.9727C293.168 58.4258 293.789 58.0078 294.602 57.7188C295.414 57.4219 296.355 57.2734 297.426 57.2734C298.488 57.2734 299.352 57.3984 300.016 57.6484C300.68 57.8984 301.168 58.2148 301.48 58.5977C301.793 58.9727 302.012 59.4492 302.137 60.0273C302.207 60.3867 302.242 61.0352 302.242 61.9727V64.7852C302.242 66.7461 302.285 67.9883 302.371 68.5117C302.465 69.0273 302.645 69.5234 302.91 70H300.707C300.488 69.5625 300.348 69.0508 300.285 68.4648ZM300.109 63.7539C299.344 64.0664 298.195 64.332 296.664 64.5508C295.797 64.6758 295.184 64.8164 294.824 64.9727C294.465 65.1289 294.188 65.3594 293.992 65.6641C293.797 65.9609 293.699 66.293 293.699 66.6602C293.699 67.2227 293.91 67.6914 294.332 68.0664C294.762 68.4414 295.387 68.6289 296.207 68.6289C297.02 68.6289 297.742 68.4531 298.375 68.1016C299.008 67.7422 299.473 67.2539 299.77 66.6367C299.996 66.1602 300.109 65.457 300.109 64.5273V63.7539ZM305.523 70V57.5547H307.41V59.3008C307.801 58.6914 308.32 58.2031 308.969 57.8359C309.617 57.4609 310.355 57.2734 311.184 57.2734C312.105 57.2734 312.859 57.4648 313.445 57.8477C314.039 58.2305 314.457 58.7656 314.699 59.4531C315.684 58 316.965 57.2734 318.543 57.2734C319.777 57.2734 320.727 57.6172 321.391 58.3047C322.055 58.9844 322.387 60.0352 322.387 61.457V70H320.289V62.1602C320.289 61.3164 320.219 60.7109 320.078 60.3438C319.945 59.9688 319.699 59.668 319.34 59.4414C318.98 59.2148 318.559 59.1016 318.074 59.1016C317.199 59.1016 316.473 59.3945 315.895 59.9805C315.316 60.5586 315.027 61.4883 315.027 62.7695V70H312.918V61.9141C312.918 60.9766 312.746 60.2734 312.402 59.8047C312.059 59.3359 311.496 59.1016 310.715 59.1016C310.121 59.1016 309.57 59.2578 309.062 59.5703C308.562 59.8828 308.199 60.3398 307.973 60.9414C307.746 61.543 307.633 62.4102 307.633 63.543V70H305.523ZM340.316 68.4648C339.535 69.1289 338.781 69.5977 338.055 69.8711C337.336 70.1445 336.562 70.2812 335.734 70.2812C334.367 70.2812 333.316 69.9492 332.582 69.2852C331.848 68.6133 331.48 67.7578 331.48 66.7188C331.48 66.1094 331.617 65.5547 331.891 65.0547C332.172 64.5469 332.535 64.1406 332.98 63.8359C333.434 63.5312 333.941 63.3008 334.504 63.1445C334.918 63.0352 335.543 62.9297 336.379 62.8281C338.082 62.625 339.336 62.3828 340.141 62.1016C340.148 61.8125 340.152 61.6289 340.152 61.5508C340.152 60.6914 339.953 60.0859 339.555 59.7344C339.016 59.2578 338.215 59.0195 337.152 59.0195C336.16 59.0195 335.426 59.1953 334.949 59.5469C334.48 59.8906 334.133 60.5039 333.906 61.3867L331.844 61.1055C332.031 60.2227 332.34 59.5117 332.77 58.9727C333.199 58.4258 333.82 58.0078 334.633 57.7188C335.445 57.4219 336.387 57.2734 337.457 57.2734C338.52 57.2734 339.383 57.3984 340.047 57.6484C340.711 57.8984 341.199 58.2148 341.512 58.5977C341.824 58.9727 342.043 59.4492 342.168 60.0273C342.238 60.3867 342.273 61.0352 342.273 61.9727V64.7852C342.273 66.7461 342.316 67.9883 342.402 68.5117C342.496 69.0273 342.676 69.5234 342.941 70H340.738C340.52 69.5625 340.379 69.0508 340.316 68.4648ZM340.141 63.7539C339.375 64.0664 338.227 64.332 336.695 64.5508C335.828 64.6758 335.215 64.8164 334.855 64.9727C334.496 65.1289 334.219 65.3594 334.023 65.6641C333.828 65.9609 333.73 66.293 333.73 66.6602C333.73 67.2227 333.941 67.6914 334.363 68.0664C334.793 68.4414 335.418 68.6289 336.238 68.6289C337.051 68.6289 337.773 68.4531 338.406 68.1016C339.039 67.7422 339.504 67.2539 339.801 66.6367C340.027 66.1602 340.141 65.457 340.141 64.5273V63.7539ZM352.41 70V52.8203H358.855C360.168 52.8203 361.219 52.9961 362.008 53.3477C362.805 53.6914 363.426 54.2266 363.871 54.9531C364.324 55.6719 364.551 56.4258 364.551 57.2148C364.551 57.9492 364.352 58.6406 363.953 59.2891C363.555 59.9375 362.953 60.4609 362.148 60.8594C363.188 61.1641 363.984 61.6836 364.539 62.418C365.102 63.1523 365.383 64.0195 365.383 65.0195C365.383 65.8242 365.211 66.5742 364.867 67.2695C364.531 67.957 364.113 68.4883 363.613 68.8633C363.113 69.2383 362.484 69.5234 361.727 69.7188C360.977 69.9062 360.055 70 358.961 70H352.41ZM354.684 60.0391H358.398C359.406 60.0391 360.129 59.9727 360.566 59.8398C361.145 59.668 361.578 59.3828 361.867 58.9844C362.164 58.5859 362.312 58.0859 362.312 57.4844C362.312 56.9141 362.176 56.4141 361.902 55.9844C361.629 55.5469 361.238 55.25 360.73 55.0938C360.223 54.9297 359.352 54.8477 358.117 54.8477H354.684V60.0391ZM354.684 67.9727H358.961C359.695 67.9727 360.211 67.9453 360.508 67.8906C361.031 67.7969 361.469 67.6406 361.82 67.4219C362.172 67.2031 362.461 66.8867 362.688 66.4727C362.914 66.0508 363.027 65.5664 363.027 65.0195C363.027 64.3789 362.863 63.8242 362.535 63.3555C362.207 62.8789 361.75 62.5469 361.164 62.3594C360.586 62.1641 359.75 62.0664 358.656 62.0664H354.684V67.9727ZM376.398 70V68.1719C375.43 69.5781 374.113 70.2812 372.449 70.2812C371.715 70.2812 371.027 70.1406 370.387 69.8594C369.754 69.5781 369.281 69.2266 368.969 68.8047C368.664 68.375 368.449 67.8516 368.324 67.2344C368.238 66.8203 368.195 66.1641 368.195 65.2656V57.5547H370.305V64.457C370.305 65.5586 370.348 66.3008 370.434 66.6836C370.566 67.2383 370.848 67.6758 371.277 67.9961C371.707 68.3086 372.238 68.4648 372.871 68.4648C373.504 68.4648 374.098 68.3047 374.652 67.9844C375.207 67.6562 375.598 67.2148 375.824 66.6602C376.059 66.0977 376.176 65.2852 376.176 64.2227V57.5547H378.285V70H376.398ZM386.207 68.1133L386.512 69.9766C385.918 70.1016 385.387 70.1641 384.918 70.1641C384.152 70.1641 383.559 70.043 383.137 69.8008C382.715 69.5586 382.418 69.2422 382.246 68.8516C382.074 68.4531 381.988 67.6211 381.988 66.3555V59.1953H380.441V57.5547H381.988V54.4727L384.086 53.207V57.5547H386.207V59.1953H384.086V66.4727C384.086 67.0742 384.121 67.4609 384.191 67.6328C384.27 67.8047 384.391 67.9414 384.555 68.043C384.727 68.1445 384.969 68.1953 385.281 68.1953C385.516 68.1953 385.824 68.168 386.207 68.1133ZM392.887 68.1133L393.191 69.9766C392.598 70.1016 392.066 70.1641 391.598 70.1641C390.832 70.1641 390.238 70.043 389.816 69.8008C389.395 69.5586 389.098 69.2422 388.926 68.8516C388.754 68.4531 388.668 67.6211 388.668 66.3555V59.1953H387.121V57.5547H388.668V54.4727L390.766 53.207V57.5547H392.887V59.1953H390.766V66.4727C390.766 67.0742 390.801 67.4609 390.871 67.6328C390.949 67.8047 391.07 67.9414 391.234 68.043C391.406 68.1445 391.648 68.1953 391.961 68.1953C392.195 68.1953 392.504 68.168 392.887 68.1133ZM394.176 63.7773C394.176 61.4727 394.816 59.7656 396.098 58.6562C397.168 57.7344 398.473 57.2734 400.012 57.2734C401.723 57.2734 403.121 57.8359 404.207 58.9609C405.293 60.0781 405.836 61.625 405.836 63.6016C405.836 65.2031 405.594 66.4648 405.109 67.3867C404.633 68.3008 403.934 69.0117 403.012 69.5195C402.098 70.0273 401.098 70.2812 400.012 70.2812C398.27 70.2812 396.859 69.7227 395.781 68.6055C394.711 67.4883 394.176 65.8789 394.176 63.7773ZM396.344 63.7773C396.344 65.3711 396.691 66.5664 397.387 67.3633C398.082 68.1523 398.957 68.5469 400.012 68.5469C401.059 68.5469 401.93 68.1484 402.625 67.3516C403.32 66.5547 403.668 65.3398 403.668 63.707C403.668 62.168 403.316 61.0039 402.613 60.2148C401.918 59.418 401.051 59.0195 400.012 59.0195C398.957 59.0195 398.082 59.4141 397.387 60.2031C396.691 60.9922 396.344 62.1836 396.344 63.7773ZM408.32 70V57.5547H410.219V59.3242C411.133 57.957 412.453 57.2734 414.18 57.2734C414.93 57.2734 415.617 57.4102 416.242 57.6836C416.875 57.9492 417.348 58.3008 417.66 58.7383C417.973 59.1758 418.191 59.6953 418.316 60.2969C418.395 60.6875 418.434 61.3711 418.434 62.3477V70H416.324V62.4297C416.324 61.5703 416.242 60.9297 416.078 60.5078C415.914 60.0781 415.621 59.7383 415.199 59.4883C414.785 59.2305 414.297 59.1016 413.734 59.1016C412.836 59.1016 412.059 59.3867 411.402 59.957C410.754 60.5273 410.43 61.6094 410.43 63.2031V70H408.32ZM422.277 70V67.5977H424.68V70H422.277Z" fill="black"/>
</svg>
