<svg width="706" height="125" viewBox="0 0 706 125" fill="none" xmlns="http://www.w3.org/2000/svg">
<rect width="706" height="125" rx="8" fill="#F3F3F3"/>
<path d="M284.293 70V52.8203H286.566V70H284.293ZM305.117 68.4648C304.336 69.1289 303.582 69.5977 302.855 69.8711C302.137 70.1445 301.363 70.2812 300.535 70.2812C299.168 70.2812 298.117 69.9492 297.383 69.2852C296.648 68.6133 296.281 67.7578 296.281 66.7188C296.281 66.1094 296.418 65.5547 296.691 65.0547C296.973 64.5469 297.336 64.1406 297.781 63.8359C298.234 63.5312 298.742 63.3008 299.305 63.1445C299.719 63.0352 300.344 62.9297 301.18 62.8281C302.883 62.625 304.137 62.3828 304.941 62.1016C304.949 61.8125 304.953 61.6289 304.953 61.5508C304.953 60.6914 304.754 60.0859 304.355 59.7344C303.816 59.2578 303.016 59.0195 301.953 59.0195C300.961 59.0195 300.227 59.1953 299.75 59.5469C299.281 59.8906 298.934 60.5039 298.707 61.3867L296.645 61.1055C296.832 60.2227 297.141 59.5117 297.57 58.9727C298 58.4258 298.621 58.0078 299.434 57.7188C300.246 57.4219 301.188 57.2734 302.258 57.2734C303.32 57.2734 304.184 57.3984 304.848 57.6484C305.512 57.8984 306 58.2148 306.312 58.5977C306.625 58.9727 306.844 59.4492 306.969 60.0273C307.039 60.3867 307.074 61.0352 307.074 61.9727V64.7852C307.074 66.7461 307.117 67.9883 307.203 68.5117C307.297 69.0273 307.477 69.5234 307.742 70H305.539C305.32 69.5625 305.18 69.0508 305.117 68.4648ZM304.941 63.7539C304.176 64.0664 303.027 64.332 301.496 64.5508C300.629 64.6758 300.016 64.8164 299.656 64.9727C299.297 65.1289 299.02 65.3594 298.824 65.6641C298.629 65.9609 298.531 66.293 298.531 66.6602C298.531 67.2227 298.742 67.6914 299.164 68.0664C299.594 68.4414 300.219 68.6289 301.039 68.6289C301.852 68.6289 302.574 68.4531 303.207 68.1016C303.84 67.7422 304.305 67.2539 304.602 66.6367C304.828 66.1602 304.941 65.457 304.941 64.5273V63.7539ZM310.355 70V57.5547H312.242V59.3008C312.633 58.6914 313.152 58.2031 313.801 57.8359C314.449 57.4609 315.188 57.2734 316.016 57.2734C316.938 57.2734 317.691 57.4648 318.277 57.8477C318.871 58.2305 319.289 58.7656 319.531 59.4531C320.516 58 321.797 57.2734 323.375 57.2734C324.609 57.2734 325.559 57.6172 326.223 58.3047C326.887 58.9844 327.219 60.0352 327.219 61.457V70H325.121V62.1602C325.121 61.3164 325.051 60.7109 324.91 60.3438C324.777 59.9688 324.531 59.668 324.172 59.4414C323.812 59.2148 323.391 59.1016 322.906 59.1016C322.031 59.1016 321.305 59.3945 320.727 59.9805C320.148 60.5586 319.859 61.4883 319.859 62.7695V70H317.75V61.9141C317.75 60.9766 317.578 60.2734 317.234 59.8047C316.891 59.3359 316.328 59.1016 315.547 59.1016C314.953 59.1016 314.402 59.2578 313.895 59.5703C313.395 59.8828 313.031 60.3398 312.805 60.9414C312.578 61.543 312.465 62.4102 312.465 63.543V70H310.355ZM345.148 68.4648C344.367 69.1289 343.613 69.5977 342.887 69.8711C342.168 70.1445 341.395 70.2812 340.566 70.2812C339.199 70.2812 338.148 69.9492 337.414 69.2852C336.68 68.6133 336.312 67.7578 336.312 66.7188C336.312 66.1094 336.449 65.5547 336.723 65.0547C337.004 64.5469 337.367 64.1406 337.812 63.8359C338.266 63.5312 338.773 63.3008 339.336 63.1445C339.75 63.0352 340.375 62.9297 341.211 62.8281C342.914 62.625 344.168 62.3828 344.973 62.1016C344.98 61.8125 344.984 61.6289 344.984 61.5508C344.984 60.6914 344.785 60.0859 344.387 59.7344C343.848 59.2578 343.047 59.0195 341.984 59.0195C340.992 59.0195 340.258 59.1953 339.781 59.5469C339.312 59.8906 338.965 60.5039 338.738 61.3867L336.676 61.1055C336.863 60.2227 337.172 59.5117 337.602 58.9727C338.031 58.4258 338.652 58.0078 339.465 57.7188C340.277 57.4219 341.219 57.2734 342.289 57.2734C343.352 57.2734 344.215 57.3984 344.879 57.6484C345.543 57.8984 346.031 58.2148 346.344 58.5977C346.656 58.9727 346.875 59.4492 347 60.0273C347.07 60.3867 347.105 61.0352 347.105 61.9727V64.7852C347.105 66.7461 347.148 67.9883 347.234 68.5117C347.328 69.0273 347.508 69.5234 347.773 70H345.57C345.352 69.5625 345.211 69.0508 345.148 68.4648ZM344.973 63.7539C344.207 64.0664 343.059 64.332 341.527 64.5508C340.66 64.6758 340.047 64.8164 339.688 64.9727C339.328 65.1289 339.051 65.3594 338.855 65.6641C338.66 65.9609 338.562 66.293 338.562 66.6602C338.562 67.2227 338.773 67.6914 339.195 68.0664C339.625 68.4414 340.25 68.6289 341.07 68.6289C341.883 68.6289 342.605 68.4531 343.238 68.1016C343.871 67.7422 344.336 67.2539 344.633 66.6367C344.859 66.1602 344.973 65.457 344.973 64.5273V63.7539ZM369.594 63.9766L371.867 64.5508C371.391 66.418 370.531 67.8438 369.289 68.8281C368.055 69.8047 366.543 70.293 364.754 70.293C362.902 70.293 361.395 69.918 360.23 69.168C359.074 68.4102 358.191 67.3164 357.582 65.8867C356.98 64.457 356.68 62.9219 356.68 61.2812C356.68 59.4922 357.02 57.9336 357.699 56.6055C358.387 55.2695 359.359 54.2578 360.617 53.5703C361.883 52.875 363.273 52.5273 364.789 52.5273C366.508 52.5273 367.953 52.9648 369.125 53.8398C370.297 54.7148 371.113 55.9453 371.574 57.5312L369.336 58.0586C368.938 56.8086 368.359 55.8984 367.602 55.3281C366.844 54.7578 365.891 54.4727 364.742 54.4727C363.422 54.4727 362.316 54.7891 361.426 55.4219C360.543 56.0547 359.922 56.9062 359.562 57.9766C359.203 59.0391 359.023 60.1367 359.023 61.2695C359.023 62.7305 359.234 64.0078 359.656 65.1016C360.086 66.1875 360.75 67 361.648 67.5391C362.547 68.0781 363.52 68.3477 364.566 68.3477C365.84 68.3477 366.918 67.9805 367.801 67.2461C368.684 66.5117 369.281 65.4219 369.594 63.9766ZM374.41 70V52.8203H376.52V58.9844C377.504 57.8438 378.746 57.2734 380.246 57.2734C381.168 57.2734 381.969 57.457 382.648 57.8242C383.328 58.1836 383.812 58.6836 384.102 59.3242C384.398 59.9648 384.547 60.8945 384.547 62.1133V70H382.438V62.1133C382.438 61.0586 382.207 60.293 381.746 59.8164C381.293 59.332 380.648 59.0898 379.812 59.0898C379.188 59.0898 378.598 59.2539 378.043 59.582C377.496 59.9023 377.105 60.3398 376.871 60.8945C376.637 61.4492 376.52 62.2148 376.52 63.1914V70H374.41ZM396.289 65.9922L398.469 66.2617C398.125 67.5352 397.488 68.5234 396.559 69.2266C395.629 69.9297 394.441 70.2812 392.996 70.2812C391.176 70.2812 389.73 69.7227 388.66 68.6055C387.598 67.4805 387.066 65.9062 387.066 63.8828C387.066 61.7891 387.605 60.1641 388.684 59.0078C389.762 57.8516 391.16 57.2734 392.879 57.2734C394.543 57.2734 395.902 57.8398 396.957 58.9727C398.012 60.1055 398.539 61.6992 398.539 63.7539C398.539 63.8789 398.535 64.0664 398.527 64.3164H389.246C389.324 65.6836 389.711 66.7305 390.406 67.457C391.102 68.1836 391.969 68.5469 393.008 68.5469C393.781 68.5469 394.441 68.3438 394.988 67.9375C395.535 67.5312 395.969 66.8828 396.289 65.9922ZM389.363 62.582H396.312C396.219 61.5352 395.953 60.75 395.516 60.2266C394.844 59.4141 393.973 59.0078 392.902 59.0078C391.934 59.0078 391.117 59.332 390.453 59.9805C389.797 60.6289 389.434 61.4961 389.363 62.582ZM409.25 65.4414L411.324 65.7109C411.098 67.1406 410.516 68.2617 409.578 69.0742C408.648 69.8789 407.504 70.2812 406.145 70.2812C404.441 70.2812 403.07 69.7266 402.031 68.6172C401 67.5 400.484 65.9023 400.484 63.8242C400.484 62.4805 400.707 61.3047 401.152 60.2969C401.598 59.2891 402.273 58.5352 403.18 58.0352C404.094 57.5273 405.086 57.2734 406.156 57.2734C407.508 57.2734 408.613 57.6172 409.473 58.3047C410.332 58.9844 410.883 59.9531 411.125 61.2109L409.074 61.5273C408.879 60.6914 408.531 60.0625 408.031 59.6406C407.539 59.2188 406.941 59.0078 406.238 59.0078C405.176 59.0078 404.312 59.3906 403.648 60.1562C402.984 60.9141 402.652 62.1172 402.652 63.7656C402.652 65.4375 402.973 66.6523 403.613 67.4102C404.254 68.168 405.09 68.5469 406.121 68.5469C406.949 68.5469 407.641 68.293 408.195 67.7852C408.75 67.2773 409.102 66.4961 409.25 65.4414ZM413.141 70V52.8203H415.25V62.6172L420.242 57.5547H422.973L418.215 62.1719L423.453 70H420.852L416.738 63.6367L415.25 65.0664V70H413.141ZM427.074 70H425.117V52.8203H427.227V58.9492C428.117 57.832 429.254 57.2734 430.637 57.2734C431.402 57.2734 432.125 57.4297 432.805 57.7422C433.492 58.0469 434.055 58.4805 434.492 59.043C434.938 59.5977 435.285 60.2695 435.535 61.0586C435.785 61.8477 435.91 62.6914 435.91 63.5898C435.91 65.7227 435.383 67.3711 434.328 68.5352C433.273 69.6992 432.008 70.2812 430.531 70.2812C429.062 70.2812 427.91 69.668 427.074 68.4414V70ZM427.051 63.6836C427.051 65.1758 427.254 66.2539 427.66 66.918C428.324 68.0039 429.223 68.5469 430.355 68.5469C431.277 68.5469 432.074 68.1484 432.746 67.3516C433.418 66.5469 433.754 65.3516 433.754 63.7656C433.754 62.1406 433.43 60.9414 432.781 60.168C432.141 59.3945 431.363 59.0078 430.449 59.0078C429.527 59.0078 428.73 59.4102 428.059 60.2148C427.387 61.0117 427.051 62.168 427.051 63.6836ZM437.703 63.7773C437.703 61.4727 438.344 59.7656 439.625 58.6562C440.695 57.7344 442 57.2734 443.539 57.2734C445.25 57.2734 446.648 57.8359 447.734 58.9609C448.82 60.0781 449.363 61.625 449.363 63.6016C449.363 65.2031 449.121 66.4648 448.637 67.3867C448.16 68.3008 447.461 69.0117 446.539 69.5195C445.625 70.0273 444.625 70.2812 443.539 70.2812C441.797 70.2812 440.387 69.7227 439.309 68.6055C438.238 67.4883 437.703 65.8789 437.703 63.7773ZM439.871 63.7773C439.871 65.3711 440.219 66.5664 440.914 67.3633C441.609 68.1523 442.484 68.5469 443.539 68.5469C444.586 68.5469 445.457 68.1484 446.152 67.3516C446.848 66.5547 447.195 65.3398 447.195 63.707C447.195 62.168 446.844 61.0039 446.141 60.2148C445.445 59.418 444.578 59.0195 443.539 59.0195C442.484 59.0195 441.609 59.4141 440.914 60.2031C440.219 60.9922 439.871 62.1836 439.871 63.7773ZM450.441 70L454.988 63.5312L450.781 57.5547H453.418L455.328 60.4727C455.688 61.0273 455.977 61.4922 456.195 61.8672C456.539 61.3516 456.855 60.8945 457.145 60.4961L459.242 57.5547H461.762L457.461 63.4141L462.09 70H459.5L456.945 66.1328L456.266 65.0898L452.996 70H450.441ZM464.445 70V67.5977H466.848V70H464.445Z" fill="black"/>
<rect x="238" y="50" width="23" height="23" rx="7" stroke="black" stroke-width="2"/>
</svg>
