<svg width="706" height="125" viewBox="0 0 706 125" fill="none" xmlns="http://www.w3.org/2000/svg">
<rect width="706" height="125" rx="8" fill="#F3F3F3"/>
<rect x="104" y="40" width="498" height="45" rx="10" fill="#DCDCDC"/>
<g clip-path="url(#clip0_507_24)">
<path d="M578.88 59.2901L575 63.1701L571.12 59.2901C570.73 58.9001 570.1 58.9001 569.71 59.2901C569.32 59.6801 569.32 60.3101 569.71 60.7001L574.3 65.2901C574.69 65.6801 575.32 65.6801 575.71 65.2901L580.3 60.7001C580.69 60.3101 580.69 59.6801 580.3 59.2901C579.91 58.9101 579.27 58.9001 578.88 59.2901Z" fill="black"/>
</g>
<rect x="114" y="50" width="25" height="25" rx="8" fill="#FF007A"/>
<path d="M155.336 69V56.1152H157.902L160.952 65.2383C161.233 66.0879 161.438 66.7236 161.567 67.1455C161.714 66.6768 161.942 65.9883 162.253 65.0801L165.338 56.1152H167.632V69H165.988V58.2158L162.244 69H160.706L156.979 58.0312V69H155.336ZM176.271 67.8486C175.686 68.3467 175.12 68.6982 174.575 68.9033C174.036 69.1084 173.456 69.2109 172.835 69.2109C171.81 69.2109 171.021 68.9619 170.471 68.4639C169.92 67.96 169.645 67.3184 169.645 66.5391C169.645 66.082 169.747 65.666 169.952 65.291C170.163 64.9102 170.436 64.6055 170.77 64.377C171.109 64.1484 171.49 63.9756 171.912 63.8584C172.223 63.7764 172.691 63.6973 173.318 63.6211C174.596 63.4688 175.536 63.2871 176.14 63.0762C176.146 62.8594 176.148 62.7217 176.148 62.6631C176.148 62.0186 175.999 61.5645 175.7 61.3008C175.296 60.9434 174.695 60.7646 173.898 60.7646C173.154 60.7646 172.604 60.8965 172.246 61.1602C171.895 61.418 171.634 61.8779 171.464 62.54L169.917 62.3291C170.058 61.667 170.289 61.1338 170.611 60.7295C170.934 60.3193 171.399 60.0059 172.009 59.7891C172.618 59.5664 173.324 59.4551 174.127 59.4551C174.924 59.4551 175.571 59.5488 176.069 59.7363C176.567 59.9238 176.934 60.1611 177.168 60.4482C177.402 60.7295 177.566 61.0869 177.66 61.5205C177.713 61.79 177.739 62.2764 177.739 62.9795V65.0889C177.739 66.5596 177.771 67.4912 177.836 67.8838C177.906 68.2705 178.041 68.6426 178.24 69H176.588C176.424 68.6719 176.318 68.2881 176.271 67.8486ZM176.14 64.3154C175.565 64.5498 174.704 64.749 173.556 64.9131C172.905 65.0068 172.445 65.1123 172.176 65.2295C171.906 65.3467 171.698 65.5195 171.552 65.748C171.405 65.9707 171.332 66.2197 171.332 66.4951C171.332 66.917 171.49 67.2686 171.807 67.5498C172.129 67.8311 172.598 67.9717 173.213 67.9717C173.822 67.9717 174.364 67.8398 174.839 67.5762C175.313 67.3066 175.662 66.9404 175.885 66.4775C176.055 66.1201 176.14 65.5928 176.14 64.8955V64.3154ZM179.91 69.7734L181.448 70.002C181.513 70.4766 181.691 70.8223 181.984 71.0391C182.377 71.332 182.913 71.4785 183.593 71.4785C184.325 71.4785 184.891 71.332 185.289 71.0391C185.688 70.7461 185.957 70.3359 186.098 69.8086C186.18 69.4863 186.218 68.8096 186.212 67.7783C185.521 68.5928 184.659 69 183.628 69C182.345 69 181.352 68.5371 180.648 67.6113C179.945 66.6855 179.594 65.5752 179.594 64.2803C179.594 63.3896 179.755 62.5693 180.077 61.8193C180.399 61.0635 180.865 60.4805 181.475 60.0703C182.09 59.6602 182.811 59.4551 183.637 59.4551C184.738 59.4551 185.646 59.9004 186.361 60.791V59.666H187.82V67.7344C187.82 69.1875 187.671 70.2158 187.372 70.8193C187.079 71.4287 186.61 71.9092 185.966 72.2607C185.327 72.6123 184.539 72.7881 183.602 72.7881C182.488 72.7881 181.589 72.5361 180.903 72.0322C180.218 71.5342 179.887 70.7812 179.91 69.7734ZM181.22 64.166C181.22 65.3906 181.463 66.2842 181.949 66.8467C182.436 67.4092 183.045 67.6904 183.777 67.6904C184.504 67.6904 185.113 67.4121 185.605 66.8555C186.098 66.293 186.344 65.4141 186.344 64.2188C186.344 63.0762 186.089 62.2148 185.579 61.6348C185.075 61.0547 184.466 60.7646 183.751 60.7646C183.048 60.7646 182.45 61.0518 181.958 61.626C181.466 62.1943 181.22 63.041 181.22 64.166ZM196.609 65.9941L198.244 66.1963C197.986 67.1514 197.509 67.8926 196.812 68.4199C196.114 68.9473 195.224 69.2109 194.14 69.2109C192.774 69.2109 191.69 68.792 190.888 67.9541C190.091 67.1104 189.692 65.9297 189.692 64.4121C189.692 62.8418 190.097 61.623 190.905 60.7559C191.714 59.8887 192.763 59.4551 194.052 59.4551C195.3 59.4551 196.319 59.8799 197.11 60.7295C197.901 61.5791 198.297 62.7744 198.297 64.3154C198.297 64.4092 198.294 64.5498 198.288 64.7373H191.327C191.386 65.7627 191.676 66.5479 192.197 67.0928C192.719 67.6377 193.369 67.9102 194.148 67.9102C194.729 67.9102 195.224 67.7578 195.634 67.4531C196.044 67.1484 196.369 66.6621 196.609 65.9941ZM191.415 63.4365H196.627C196.557 62.6514 196.357 62.0625 196.029 61.6699C195.525 61.0605 194.872 60.7559 194.069 60.7559C193.343 60.7559 192.73 60.999 192.232 61.4854C191.74 61.9717 191.468 62.6221 191.415 63.4365ZM200.239 69V59.666H201.663V60.9932C202.349 59.9678 203.339 59.4551 204.634 59.4551C205.196 59.4551 205.712 59.5576 206.181 59.7627C206.655 59.9619 207.01 60.2256 207.244 60.5537C207.479 60.8818 207.643 61.2715 207.736 61.7227C207.795 62.0156 207.824 62.5283 207.824 63.2607V69H206.242V63.3223C206.242 62.6777 206.181 62.1973 206.058 61.8809C205.935 61.5586 205.715 61.3037 205.398 61.1162C205.088 60.9229 204.722 60.8262 204.3 60.8262C203.626 60.8262 203.043 61.04 202.551 61.4678C202.064 61.8955 201.821 62.707 201.821 63.9023V69H200.239ZM213.713 67.585L213.941 68.9824C213.496 69.0762 213.098 69.123 212.746 69.123C212.172 69.123 211.727 69.0322 211.41 68.8506C211.094 68.6689 210.871 68.4316 210.742 68.1387C210.613 67.8398 210.549 67.2158 210.549 66.2666V60.8965H209.389V59.666H210.549V57.3545L212.122 56.4053V59.666H213.713V60.8965H212.122V66.3545C212.122 66.8057 212.148 67.0957 212.201 67.2246C212.26 67.3535 212.351 67.4561 212.474 67.5322C212.603 67.6084 212.784 67.6465 213.019 67.6465C213.194 67.6465 213.426 67.626 213.713 67.585ZM221.359 67.8486C220.773 68.3467 220.208 68.6982 219.663 68.9033C219.124 69.1084 218.544 69.2109 217.923 69.2109C216.897 69.2109 216.109 68.9619 215.559 68.4639C215.008 67.96 214.732 67.3184 214.732 66.5391C214.732 66.082 214.835 65.666 215.04 65.291C215.251 64.9102 215.523 64.6055 215.857 64.377C216.197 64.1484 216.578 63.9756 217 63.8584C217.311 63.7764 217.779 63.6973 218.406 63.6211C219.684 63.4688 220.624 63.2871 221.228 63.0762C221.233 62.8594 221.236 62.7217 221.236 62.6631C221.236 62.0186 221.087 61.5645 220.788 61.3008C220.384 60.9434 219.783 60.7646 218.986 60.7646C218.242 60.7646 217.691 60.8965 217.334 61.1602C216.982 61.418 216.722 61.8779 216.552 62.54L215.005 62.3291C215.146 61.667 215.377 61.1338 215.699 60.7295C216.021 60.3193 216.487 60.0059 217.097 59.7891C217.706 59.5664 218.412 59.4551 219.215 59.4551C220.012 59.4551 220.659 59.5488 221.157 59.7363C221.655 59.9238 222.021 60.1611 222.256 60.4482C222.49 60.7295 222.654 61.0869 222.748 61.5205C222.801 61.79 222.827 62.2764 222.827 62.9795V65.0889C222.827 66.5596 222.859 67.4912 222.924 67.8838C222.994 68.2705 223.129 68.6426 223.328 69H221.676C221.512 68.6719 221.406 68.2881 221.359 67.8486ZM221.228 64.3154C220.653 64.5498 219.792 64.749 218.644 64.9131C217.993 65.0068 217.533 65.1123 217.264 65.2295C216.994 65.3467 216.786 65.5195 216.64 65.748C216.493 65.9707 216.42 66.2197 216.42 66.4951C216.42 66.917 216.578 67.2686 216.895 67.5498C217.217 67.8311 217.686 67.9717 218.301 67.9717C218.91 67.9717 219.452 67.8398 219.927 67.5762C220.401 67.3066 220.75 66.9404 220.973 66.4775C221.143 66.1201 221.228 65.5928 221.228 64.8955V64.3154Z" fill="black"/>
<defs>
<clipPath id="clip0_507_24">
<rect width="24" height="24" fill="white" transform="translate(563 50)"/>
</clipPath>
</defs>
</svg>
