<svg width="706" height="125" viewBox="0 0 706 125" fill="none" xmlns="http://www.w3.org/2000/svg">
<rect width="706" height="125" rx="8" fill="#F3F3F3"/>
<rect x="104" y="40" width="498" height="45" rx="10" fill="#DCDCDC"/>
<g clip-path="url(#clip0_513_63)">
<path d="M578.88 59.2901L575 63.1701L571.12 59.2901C570.73 58.9001 570.1 58.9001 569.71 59.2901C569.32 59.6801 569.32 60.3101 569.71 60.7001L574.3 65.2901C574.69 65.6801 575.32 65.6801 575.71 65.2901L580.3 60.7001C580.69 60.3101 580.69 59.6801 580.3 59.2901C579.91 58.9101 579.27 58.9001 578.88 59.2901Z" fill="black"/>
</g>
<path d="M124.809 64.8604L126.417 64.7197C126.493 65.3643 126.669 65.8945 126.944 66.3105C127.226 66.7207 127.659 67.0547 128.245 67.3125C128.831 67.5645 129.49 67.6904 130.223 67.6904C130.873 67.6904 131.447 67.5938 131.945 67.4004C132.443 67.207 132.812 66.9434 133.053 66.6094C133.299 66.2695 133.422 65.9004 133.422 65.502C133.422 65.0977 133.305 64.7461 133.07 64.4473C132.836 64.1426 132.449 63.8877 131.91 63.6826C131.564 63.5479 130.8 63.3398 129.616 63.0586C128.433 62.7715 127.604 62.502 127.129 62.25C126.514 61.9277 126.054 61.5293 125.749 61.0547C125.45 60.5742 125.301 60.0381 125.301 59.4463C125.301 58.7959 125.485 58.1895 125.854 57.627C126.224 57.0586 126.763 56.6279 127.472 56.335C128.181 56.042 128.969 55.8955 129.836 55.8955C130.791 55.8955 131.632 56.0508 132.358 56.3613C133.091 56.666 133.653 57.1172 134.046 57.7148C134.438 58.3125 134.649 58.9893 134.679 59.7451L133.044 59.8682C132.956 59.0537 132.657 58.4385 132.147 58.0225C131.644 57.6064 130.896 57.3984 129.906 57.3984C128.875 57.3984 128.122 57.5889 127.647 57.9697C127.179 58.3447 126.944 58.7988 126.944 59.332C126.944 59.7949 127.111 60.1758 127.445 60.4746C127.773 60.7734 128.629 61.0811 130.012 61.3975C131.4 61.708 132.353 61.9805 132.868 62.2148C133.618 62.5605 134.172 63 134.529 63.5332C134.887 64.0605 135.065 64.6699 135.065 65.3613C135.065 66.0469 134.869 66.6943 134.477 67.3037C134.084 67.9072 133.519 68.3789 132.78 68.7188C132.048 69.0527 131.222 69.2197 130.302 69.2197C129.136 69.2197 128.157 69.0498 127.366 68.71C126.581 68.3701 125.963 67.8604 125.512 67.1807C125.066 66.4951 124.832 65.7217 124.809 64.8604ZM143.582 65.9941L145.217 66.1963C144.959 67.1514 144.481 67.8926 143.784 68.4199C143.087 68.9473 142.196 69.2109 141.112 69.2109C139.747 69.2109 138.663 68.792 137.86 67.9541C137.063 67.1104 136.665 65.9297 136.665 64.4121C136.665 62.8418 137.069 61.623 137.878 60.7559C138.687 59.8887 139.735 59.4551 141.024 59.4551C142.272 59.4551 143.292 59.8799 144.083 60.7295C144.874 61.5791 145.27 62.7744 145.27 64.3154C145.27 64.4092 145.267 64.5498 145.261 64.7373H138.3C138.358 65.7627 138.648 66.5479 139.17 67.0928C139.691 67.6377 140.342 67.9102 141.121 67.9102C141.701 67.9102 142.196 67.7578 142.606 67.4531C143.017 67.1484 143.342 66.6621 143.582 65.9941ZM138.388 63.4365H143.6C143.529 62.6514 143.33 62.0625 143.002 61.6699C142.498 61.0605 141.845 60.7559 141.042 60.7559C140.315 60.7559 139.703 60.999 139.205 61.4854C138.713 61.9717 138.44 62.6221 138.388 63.4365ZM147.177 69V56.1152H148.759V69H147.177ZM157.609 65.9941L159.244 66.1963C158.986 67.1514 158.509 67.8926 157.812 68.4199C157.114 68.9473 156.224 69.2109 155.14 69.2109C153.774 69.2109 152.69 68.792 151.888 67.9541C151.091 67.1104 150.692 65.9297 150.692 64.4121C150.692 62.8418 151.097 61.623 151.905 60.7559C152.714 59.8887 153.763 59.4551 155.052 59.4551C156.3 59.4551 157.319 59.8799 158.11 60.7295C158.901 61.5791 159.297 62.7744 159.297 64.3154C159.297 64.4092 159.294 64.5498 159.288 64.7373H152.327C152.386 65.7627 152.676 66.5479 153.197 67.0928C153.719 67.6377 154.369 67.9102 155.148 67.9102C155.729 67.9102 156.224 67.7578 156.634 67.4531C157.044 67.1484 157.369 66.6621 157.609 65.9941ZM152.415 63.4365H157.627C157.557 62.6514 157.357 62.0625 157.029 61.6699C156.525 61.0605 155.872 60.7559 155.069 60.7559C154.343 60.7559 153.73 60.999 153.232 61.4854C152.74 61.9717 152.468 62.6221 152.415 63.4365ZM167.33 65.5811L168.886 65.7832C168.716 66.8555 168.279 67.6963 167.576 68.3057C166.879 68.9092 166.021 69.2109 165.001 69.2109C163.724 69.2109 162.695 68.7949 161.916 67.9629C161.143 67.125 160.756 65.9268 160.756 64.3682C160.756 63.3604 160.923 62.4785 161.257 61.7227C161.591 60.9668 162.098 60.4014 162.777 60.0264C163.463 59.6455 164.207 59.4551 165.01 59.4551C166.023 59.4551 166.853 59.7129 167.497 60.2285C168.142 60.7383 168.555 61.4648 168.736 62.4082L167.198 62.6455C167.052 62.0186 166.791 61.5469 166.416 61.2305C166.047 60.9141 165.599 60.7559 165.071 60.7559C164.274 60.7559 163.627 61.043 163.129 61.6172C162.631 62.1855 162.382 63.0879 162.382 64.3242C162.382 65.5781 162.622 66.4893 163.103 67.0576C163.583 67.626 164.21 67.9102 164.983 67.9102C165.604 67.9102 166.123 67.7197 166.539 67.3389C166.955 66.958 167.219 66.3721 167.33 65.5811ZM173.693 67.585L173.922 68.9824C173.477 69.0762 173.078 69.123 172.727 69.123C172.152 69.123 171.707 69.0322 171.391 68.8506C171.074 68.6689 170.852 68.4316 170.723 68.1387C170.594 67.8398 170.529 67.2158 170.529 66.2666V60.8965H169.369V59.666H170.529V57.3545L172.103 56.4053V59.666H173.693V60.8965H172.103V66.3545C172.103 66.8057 172.129 67.0957 172.182 67.2246C172.24 67.3535 172.331 67.4561 172.454 67.5322C172.583 67.6084 172.765 67.6465 172.999 67.6465C173.175 67.6465 173.406 67.626 173.693 67.585ZM186.35 67.8486C185.764 68.3467 185.198 68.6982 184.653 68.9033C184.114 69.1084 183.534 69.2109 182.913 69.2109C181.888 69.2109 181.1 68.9619 180.549 68.4639C179.998 67.96 179.723 67.3184 179.723 66.5391C179.723 66.082 179.825 65.666 180.03 65.291C180.241 64.9102 180.514 64.6055 180.848 64.377C181.188 64.1484 181.568 63.9756 181.99 63.8584C182.301 63.7764 182.77 63.6973 183.396 63.6211C184.674 63.4688 185.614 63.2871 186.218 63.0762C186.224 62.8594 186.227 62.7217 186.227 62.6631C186.227 62.0186 186.077 61.5645 185.778 61.3008C185.374 60.9434 184.773 60.7646 183.977 60.7646C183.232 60.7646 182.682 60.8965 182.324 61.1602C181.973 61.418 181.712 61.8779 181.542 62.54L179.995 62.3291C180.136 61.667 180.367 61.1338 180.689 60.7295C181.012 60.3193 181.478 60.0059 182.087 59.7891C182.696 59.5664 183.402 59.4551 184.205 59.4551C185.002 59.4551 185.649 59.5488 186.147 59.7363C186.646 59.9238 187.012 60.1611 187.246 60.4482C187.48 60.7295 187.645 61.0869 187.738 61.5205C187.791 61.79 187.817 62.2764 187.817 62.9795V65.0889C187.817 66.5596 187.85 67.4912 187.914 67.8838C187.984 68.2705 188.119 68.6426 188.318 69H186.666C186.502 68.6719 186.396 68.2881 186.35 67.8486ZM186.218 64.3154C185.644 64.5498 184.782 64.749 183.634 64.9131C182.983 65.0068 182.523 65.1123 182.254 65.2295C181.984 65.3467 181.776 65.5195 181.63 65.748C181.483 65.9707 181.41 66.2197 181.41 66.4951C181.41 66.917 181.568 67.2686 181.885 67.5498C182.207 67.8311 182.676 67.9717 183.291 67.9717C183.9 67.9717 184.442 67.8398 184.917 67.5762C185.392 67.3066 185.74 66.9404 185.963 66.4775C186.133 66.1201 186.218 65.5928 186.218 64.8955V64.3154ZM190.278 69V59.666H191.702V60.9932C192.388 59.9678 193.378 59.4551 194.673 59.4551C195.235 59.4551 195.751 59.5576 196.22 59.7627C196.694 59.9619 197.049 60.2256 197.283 60.5537C197.518 60.8818 197.682 61.2715 197.775 61.7227C197.834 62.0156 197.863 62.5283 197.863 63.2607V69H196.281V63.3223C196.281 62.6777 196.22 62.1973 196.097 61.8809C195.974 61.5586 195.754 61.3037 195.438 61.1162C195.127 60.9229 194.761 60.8262 194.339 60.8262C193.665 60.8262 193.082 61.04 192.59 61.4678C192.104 61.8955 191.86 62.707 191.86 63.9023V69H190.278ZM204.719 64.333C204.719 62.6045 205.199 61.3242 206.16 60.4922C206.963 59.8008 207.941 59.4551 209.096 59.4551C210.379 59.4551 211.428 59.877 212.242 60.7207C213.057 61.5586 213.464 62.7188 213.464 64.2012C213.464 65.4023 213.282 66.3486 212.919 67.04C212.562 67.7256 212.037 68.2588 211.346 68.6396C210.66 69.0205 209.91 69.2109 209.096 69.2109C207.789 69.2109 206.731 68.792 205.923 67.9541C205.12 67.1162 204.719 65.9092 204.719 64.333ZM206.345 64.333C206.345 65.5283 206.605 66.4248 207.127 67.0225C207.648 67.6143 208.305 67.9102 209.096 67.9102C209.881 67.9102 210.534 67.6113 211.056 67.0137C211.577 66.416 211.838 65.5049 211.838 64.2803C211.838 63.126 211.574 62.2529 211.047 61.6611C210.525 61.0635 209.875 60.7646 209.096 60.7646C208.305 60.7646 207.648 61.0605 207.127 61.6523C206.605 62.2441 206.345 63.1377 206.345 64.333ZM215.327 72.5771V59.666H216.769V60.8789C217.108 60.4043 217.492 60.0498 217.92 59.8154C218.348 59.5752 218.866 59.4551 219.476 59.4551C220.272 59.4551 220.976 59.6602 221.585 60.0703C222.194 60.4805 222.654 61.0605 222.965 61.8105C223.275 62.5547 223.431 63.3721 223.431 64.2627C223.431 65.2178 223.258 66.0791 222.912 66.8467C222.572 67.6084 222.074 68.1943 221.418 68.6045C220.768 69.0088 220.082 69.2109 219.361 69.2109C218.834 69.2109 218.359 69.0996 217.938 68.877C217.521 68.6543 217.179 68.373 216.909 68.0332V72.5771H215.327ZM216.76 64.3857C216.76 65.5869 217.003 66.4746 217.489 67.0488C217.976 67.623 218.564 67.9102 219.256 67.9102C219.959 67.9102 220.56 67.6143 221.058 67.0225C221.562 66.4248 221.813 65.502 221.813 64.2539C221.813 63.0645 221.567 62.1738 221.075 61.582C220.589 60.9902 220.006 60.6943 219.326 60.6943C218.652 60.6943 218.055 61.0107 217.533 61.6436C217.018 62.2705 216.76 63.1846 216.76 64.3857ZM228.801 67.585L229.029 68.9824C228.584 69.0762 228.186 69.123 227.834 69.123C227.26 69.123 226.814 69.0322 226.498 68.8506C226.182 68.6689 225.959 68.4316 225.83 68.1387C225.701 67.8398 225.637 67.2158 225.637 66.2666V60.8965H224.477V59.666H225.637V57.3545L227.21 56.4053V59.666H228.801V60.8965H227.21V66.3545C227.21 66.8057 227.236 67.0957 227.289 67.2246C227.348 67.3535 227.438 67.4561 227.562 67.5322C227.69 67.6084 227.872 67.6465 228.106 67.6465C228.282 67.6465 228.514 67.626 228.801 67.585ZM230.365 57.9346V56.1152H231.947V57.9346H230.365ZM230.365 69V59.666H231.947V69H230.365ZM233.775 64.333C233.775 62.6045 234.256 61.3242 235.217 60.4922C236.02 59.8008 236.998 59.4551 238.152 59.4551C239.436 59.4551 240.484 59.877 241.299 60.7207C242.113 61.5586 242.521 62.7188 242.521 64.2012C242.521 65.4023 242.339 66.3486 241.976 67.04C241.618 67.7256 241.094 68.2588 240.402 68.6396C239.717 69.0205 238.967 69.2109 238.152 69.2109C236.846 69.2109 235.788 68.792 234.979 67.9541C234.177 67.1162 233.775 65.9092 233.775 64.333ZM235.401 64.333C235.401 65.5283 235.662 66.4248 236.184 67.0225C236.705 67.6143 237.361 67.9102 238.152 67.9102C238.938 67.9102 239.591 67.6113 240.112 67.0137C240.634 66.416 240.895 65.5049 240.895 64.2803C240.895 63.126 240.631 62.2529 240.104 61.6611C239.582 61.0635 238.932 60.7646 238.152 60.7646C237.361 60.7646 236.705 61.0605 236.184 61.6523C235.662 62.2441 235.401 63.1377 235.401 64.333ZM244.384 69V59.666H245.808V60.9932C246.493 59.9678 247.483 59.4551 248.778 59.4551C249.341 59.4551 249.856 59.5576 250.325 59.7627C250.8 59.9619 251.154 60.2256 251.389 60.5537C251.623 60.8818 251.787 61.2715 251.881 61.7227C251.939 62.0156 251.969 62.5283 251.969 63.2607V69H250.387V63.3223C250.387 62.6777 250.325 62.1973 250.202 61.8809C250.079 61.5586 249.859 61.3037 249.543 61.1162C249.232 60.9229 248.866 60.8262 248.444 60.8262C247.771 60.8262 247.188 61.04 246.695 61.4678C246.209 61.8955 245.966 62.707 245.966 63.9023V69H244.384ZM254.852 69V67.1982H256.653V69H254.852Z" fill="black"/>
<defs>
<clipPath id="clip0_513_63">
<rect width="24" height="24" fill="white" transform="translate(563 50)"/>
</clipPath>
</defs>
</svg>
