<svg width="706" height="125" viewBox="0 0 706 125" fill="none" xmlns="http://www.w3.org/2000/svg">
<rect width="706" height="125" rx="8" fill="#252528"/>
<rect x="104" y="40" width="498" height="45" rx="10" fill="#19191C"/>
<g clip-path="url(#clip0_513_55)">
<path d="M578.88 59.2901L575 63.1701L571.12 59.2901C570.73 58.9001 570.1 58.9001 569.71 59.2901C569.32 59.6801 569.32 60.3101 569.71 60.7001L574.3 65.2901C574.69 65.6801 575.32 65.6801 575.71 65.2901L580.3 60.7001C580.69 60.3101 580.69 59.6801 580.3 59.2901C579.91 58.9101 579.27 58.9001 578.88 59.2901Z" fill="white"/>
</g>
<path d="M123.809 64.8604L125.417 64.7197C125.493 65.3643 125.669 65.8945 125.944 66.3105C126.226 66.7207 126.659 67.0547 127.245 67.3125C127.831 67.5645 128.49 67.6904 129.223 67.6904C129.873 67.6904 130.447 67.5938 130.945 67.4004C131.443 67.207 131.812 66.9434 132.053 66.6094C132.299 66.2695 132.422 65.9004 132.422 65.502C132.422 65.0977 132.305 64.7461 132.07 64.4473C131.836 64.1426 131.449 63.8877 130.91 63.6826C130.564 63.5479 129.8 63.3398 128.616 63.0586C127.433 62.7715 126.604 62.502 126.129 62.25C125.514 61.9277 125.054 61.5293 124.749 61.0547C124.45 60.5742 124.301 60.0381 124.301 59.4463C124.301 58.7959 124.485 58.1895 124.854 57.627C125.224 57.0586 125.763 56.6279 126.472 56.335C127.181 56.042 127.969 55.8955 128.836 55.8955C129.791 55.8955 130.632 56.0508 131.358 56.3613C132.091 56.666 132.653 57.1172 133.046 57.7148C133.438 58.3125 133.649 58.9893 133.679 59.7451L132.044 59.8682C131.956 59.0537 131.657 58.4385 131.147 58.0225C130.644 57.6064 129.896 57.3984 128.906 57.3984C127.875 57.3984 127.122 57.5889 126.647 57.9697C126.179 58.3447 125.944 58.7988 125.944 59.332C125.944 59.7949 126.111 60.1758 126.445 60.4746C126.773 60.7734 127.629 61.0811 129.012 61.3975C130.4 61.708 131.353 61.9805 131.868 62.2148C132.618 62.5605 133.172 63 133.529 63.5332C133.887 64.0605 134.065 64.6699 134.065 65.3613C134.065 66.0469 133.869 66.6943 133.477 67.3037C133.084 67.9072 132.519 68.3789 131.78 68.7188C131.048 69.0527 130.222 69.2197 129.302 69.2197C128.136 69.2197 127.157 69.0498 126.366 68.71C125.581 68.3701 124.963 67.8604 124.512 67.1807C124.066 66.4951 123.832 65.7217 123.809 64.8604ZM142.582 65.9941L144.217 66.1963C143.959 67.1514 143.481 67.8926 142.784 68.4199C142.087 68.9473 141.196 69.2109 140.112 69.2109C138.747 69.2109 137.663 68.792 136.86 67.9541C136.063 67.1104 135.665 65.9297 135.665 64.4121C135.665 62.8418 136.069 61.623 136.878 60.7559C137.687 59.8887 138.735 59.4551 140.024 59.4551C141.272 59.4551 142.292 59.8799 143.083 60.7295C143.874 61.5791 144.27 62.7744 144.27 64.3154C144.27 64.4092 144.267 64.5498 144.261 64.7373H137.3C137.358 65.7627 137.648 66.5479 138.17 67.0928C138.691 67.6377 139.342 67.9102 140.121 67.9102C140.701 67.9102 141.196 67.7578 141.606 67.4531C142.017 67.1484 142.342 66.6621 142.582 65.9941ZM137.388 63.4365H142.6C142.529 62.6514 142.33 62.0625 142.002 61.6699C141.498 61.0605 140.845 60.7559 140.042 60.7559C139.315 60.7559 138.703 60.999 138.205 61.4854C137.713 61.9717 137.44 62.6221 137.388 63.4365ZM146.177 69V56.1152H147.759V69H146.177ZM156.609 65.9941L158.244 66.1963C157.986 67.1514 157.509 67.8926 156.812 68.4199C156.114 68.9473 155.224 69.2109 154.14 69.2109C152.774 69.2109 151.69 68.792 150.888 67.9541C150.091 67.1104 149.692 65.9297 149.692 64.4121C149.692 62.8418 150.097 61.623 150.905 60.7559C151.714 59.8887 152.763 59.4551 154.052 59.4551C155.3 59.4551 156.319 59.8799 157.11 60.7295C157.901 61.5791 158.297 62.7744 158.297 64.3154C158.297 64.4092 158.294 64.5498 158.288 64.7373H151.327C151.386 65.7627 151.676 66.5479 152.197 67.0928C152.719 67.6377 153.369 67.9102 154.148 67.9102C154.729 67.9102 155.224 67.7578 155.634 67.4531C156.044 67.1484 156.369 66.6621 156.609 65.9941ZM151.415 63.4365H156.627C156.557 62.6514 156.357 62.0625 156.029 61.6699C155.525 61.0605 154.872 60.7559 154.069 60.7559C153.343 60.7559 152.73 60.999 152.232 61.4854C151.74 61.9717 151.468 62.6221 151.415 63.4365ZM166.33 65.5811L167.886 65.7832C167.716 66.8555 167.279 67.6963 166.576 68.3057C165.879 68.9092 165.021 69.2109 164.001 69.2109C162.724 69.2109 161.695 68.7949 160.916 67.9629C160.143 67.125 159.756 65.9268 159.756 64.3682C159.756 63.3604 159.923 62.4785 160.257 61.7227C160.591 60.9668 161.098 60.4014 161.777 60.0264C162.463 59.6455 163.207 59.4551 164.01 59.4551C165.023 59.4551 165.853 59.7129 166.497 60.2285C167.142 60.7383 167.555 61.4648 167.736 62.4082L166.198 62.6455C166.052 62.0186 165.791 61.5469 165.416 61.2305C165.047 60.9141 164.599 60.7559 164.071 60.7559C163.274 60.7559 162.627 61.043 162.129 61.6172C161.631 62.1855 161.382 63.0879 161.382 64.3242C161.382 65.5781 161.622 66.4893 162.103 67.0576C162.583 67.626 163.21 67.9102 163.983 67.9102C164.604 67.9102 165.123 67.7197 165.539 67.3389C165.955 66.958 166.219 66.3721 166.33 65.5811ZM172.693 67.585L172.922 68.9824C172.477 69.0762 172.078 69.123 171.727 69.123C171.152 69.123 170.707 69.0322 170.391 68.8506C170.074 68.6689 169.852 68.4316 169.723 68.1387C169.594 67.8398 169.529 67.2158 169.529 66.2666V60.8965H168.369V59.666H169.529V57.3545L171.103 56.4053V59.666H172.693V60.8965H171.103V66.3545C171.103 66.8057 171.129 67.0957 171.182 67.2246C171.24 67.3535 171.331 67.4561 171.454 67.5322C171.583 67.6084 171.765 67.6465 171.999 67.6465C172.175 67.6465 172.406 67.626 172.693 67.585ZM185.35 67.8486C184.764 68.3467 184.198 68.6982 183.653 68.9033C183.114 69.1084 182.534 69.2109 181.913 69.2109C180.888 69.2109 180.1 68.9619 179.549 68.4639C178.998 67.96 178.723 67.3184 178.723 66.5391C178.723 66.082 178.825 65.666 179.03 65.291C179.241 64.9102 179.514 64.6055 179.848 64.377C180.188 64.1484 180.568 63.9756 180.99 63.8584C181.301 63.7764 181.77 63.6973 182.396 63.6211C183.674 63.4688 184.614 63.2871 185.218 63.0762C185.224 62.8594 185.227 62.7217 185.227 62.6631C185.227 62.0186 185.077 61.5645 184.778 61.3008C184.374 60.9434 183.773 60.7646 182.977 60.7646C182.232 60.7646 181.682 60.8965 181.324 61.1602C180.973 61.418 180.712 61.8779 180.542 62.54L178.995 62.3291C179.136 61.667 179.367 61.1338 179.689 60.7295C180.012 60.3193 180.478 60.0059 181.087 59.7891C181.696 59.5664 182.402 59.4551 183.205 59.4551C184.002 59.4551 184.649 59.5488 185.147 59.7363C185.646 59.9238 186.012 60.1611 186.246 60.4482C186.48 60.7295 186.645 61.0869 186.738 61.5205C186.791 61.79 186.817 62.2764 186.817 62.9795V65.0889C186.817 66.5596 186.85 67.4912 186.914 67.8838C186.984 68.2705 187.119 68.6426 187.318 69H185.666C185.502 68.6719 185.396 68.2881 185.35 67.8486ZM185.218 64.3154C184.644 64.5498 183.782 64.749 182.634 64.9131C181.983 65.0068 181.523 65.1123 181.254 65.2295C180.984 65.3467 180.776 65.5195 180.63 65.748C180.483 65.9707 180.41 66.2197 180.41 66.4951C180.41 66.917 180.568 67.2686 180.885 67.5498C181.207 67.8311 181.676 67.9717 182.291 67.9717C182.9 67.9717 183.442 67.8398 183.917 67.5762C184.392 67.3066 184.74 66.9404 184.963 66.4775C185.133 66.1201 185.218 65.5928 185.218 64.8955V64.3154ZM189.278 69V59.666H190.702V60.9932C191.388 59.9678 192.378 59.4551 193.673 59.4551C194.235 59.4551 194.751 59.5576 195.22 59.7627C195.694 59.9619 196.049 60.2256 196.283 60.5537C196.518 60.8818 196.682 61.2715 196.775 61.7227C196.834 62.0156 196.863 62.5283 196.863 63.2607V69H195.281V63.3223C195.281 62.6777 195.22 62.1973 195.097 61.8809C194.974 61.5586 194.754 61.3037 194.438 61.1162C194.127 60.9229 193.761 60.8262 193.339 60.8262C192.665 60.8262 192.082 61.04 191.59 61.4678C191.104 61.8955 190.86 62.707 190.86 63.9023V69H189.278ZM203.719 64.333C203.719 62.6045 204.199 61.3242 205.16 60.4922C205.963 59.8008 206.941 59.4551 208.096 59.4551C209.379 59.4551 210.428 59.877 211.242 60.7207C212.057 61.5586 212.464 62.7188 212.464 64.2012C212.464 65.4023 212.282 66.3486 211.919 67.04C211.562 67.7256 211.037 68.2588 210.346 68.6396C209.66 69.0205 208.91 69.2109 208.096 69.2109C206.789 69.2109 205.731 68.792 204.923 67.9541C204.12 67.1162 203.719 65.9092 203.719 64.333ZM205.345 64.333C205.345 65.5283 205.605 66.4248 206.127 67.0225C206.648 67.6143 207.305 67.9102 208.096 67.9102C208.881 67.9102 209.534 67.6113 210.056 67.0137C210.577 66.416 210.838 65.5049 210.838 64.2803C210.838 63.126 210.574 62.2529 210.047 61.6611C209.525 61.0635 208.875 60.7646 208.096 60.7646C207.305 60.7646 206.648 61.0605 206.127 61.6523C205.605 62.2441 205.345 63.1377 205.345 64.333ZM214.327 72.5771V59.666H215.769V60.8789C216.108 60.4043 216.492 60.0498 216.92 59.8154C217.348 59.5752 217.866 59.4551 218.476 59.4551C219.272 59.4551 219.976 59.6602 220.585 60.0703C221.194 60.4805 221.654 61.0605 221.965 61.8105C222.275 62.5547 222.431 63.3721 222.431 64.2627C222.431 65.2178 222.258 66.0791 221.912 66.8467C221.572 67.6084 221.074 68.1943 220.418 68.6045C219.768 69.0088 219.082 69.2109 218.361 69.2109C217.834 69.2109 217.359 69.0996 216.938 68.877C216.521 68.6543 216.179 68.373 215.909 68.0332V72.5771H214.327ZM215.76 64.3857C215.76 65.5869 216.003 66.4746 216.489 67.0488C216.976 67.623 217.564 67.9102 218.256 67.9102C218.959 67.9102 219.56 67.6143 220.058 67.0225C220.562 66.4248 220.813 65.502 220.813 64.2539C220.813 63.0645 220.567 62.1738 220.075 61.582C219.589 60.9902 219.006 60.6943 218.326 60.6943C217.652 60.6943 217.055 61.0107 216.533 61.6436C216.018 62.2705 215.76 63.1846 215.76 64.3857ZM227.801 67.585L228.029 68.9824C227.584 69.0762 227.186 69.123 226.834 69.123C226.26 69.123 225.814 69.0322 225.498 68.8506C225.182 68.6689 224.959 68.4316 224.83 68.1387C224.701 67.8398 224.637 67.2158 224.637 66.2666V60.8965H223.477V59.666H224.637V57.3545L226.21 56.4053V59.666H227.801V60.8965H226.21V66.3545C226.21 66.8057 226.236 67.0957 226.289 67.2246C226.348 67.3535 226.438 67.4561 226.562 67.5322C226.69 67.6084 226.872 67.6465 227.106 67.6465C227.282 67.6465 227.514 67.626 227.801 67.585ZM229.365 57.9346V56.1152H230.947V57.9346H229.365ZM229.365 69V59.666H230.947V69H229.365ZM232.775 64.333C232.775 62.6045 233.256 61.3242 234.217 60.4922C235.02 59.8008 235.998 59.4551 237.152 59.4551C238.436 59.4551 239.484 59.877 240.299 60.7207C241.113 61.5586 241.521 62.7188 241.521 64.2012C241.521 65.4023 241.339 66.3486 240.976 67.04C240.618 67.7256 240.094 68.2588 239.402 68.6396C238.717 69.0205 237.967 69.2109 237.152 69.2109C235.846 69.2109 234.788 68.792 233.979 67.9541C233.177 67.1162 232.775 65.9092 232.775 64.333ZM234.401 64.333C234.401 65.5283 234.662 66.4248 235.184 67.0225C235.705 67.6143 236.361 67.9102 237.152 67.9102C237.938 67.9102 238.591 67.6113 239.112 67.0137C239.634 66.416 239.895 65.5049 239.895 64.2803C239.895 63.126 239.631 62.2529 239.104 61.6611C238.582 61.0635 237.932 60.7646 237.152 60.7646C236.361 60.7646 235.705 61.0605 235.184 61.6523C234.662 62.2441 234.401 63.1377 234.401 64.333ZM243.384 69V59.666H244.808V60.9932C245.493 59.9678 246.483 59.4551 247.778 59.4551C248.341 59.4551 248.856 59.5576 249.325 59.7627C249.8 59.9619 250.154 60.2256 250.389 60.5537C250.623 60.8818 250.787 61.2715 250.881 61.7227C250.939 62.0156 250.969 62.5283 250.969 63.2607V69H249.387V63.3223C249.387 62.6777 249.325 62.1973 249.202 61.8809C249.079 61.5586 248.859 61.3037 248.543 61.1162C248.232 60.9229 247.866 60.8262 247.444 60.8262C246.771 60.8262 246.188 61.04 245.695 61.4678C245.209 61.8955 244.966 62.707 244.966 63.9023V69H243.384ZM253.852 69V67.1982H255.653V69H253.852Z" fill="white"/>
<defs>
<clipPath id="clip0_513_55">
<rect width="24" height="24" fill="white" transform="translate(563 50)"/>
</clipPath>
</defs>
</svg>
