<svg width="706" height="125" viewBox="0 0 706 125" fill="none" xmlns="http://www.w3.org/2000/svg">
<rect width="706" height="125" rx="8" fill="#F3F3F3"/>
<rect x="218" y="37" width="270" height="50" rx="8" fill="#F3F3F3"/>
<path d="M285.293 70V52.8203H287.566V70H285.293ZM306.117 68.4648C305.336 69.1289 304.582 69.5977 303.855 69.8711C303.137 70.1445 302.363 70.2812 301.535 70.2812C300.168 70.2812 299.117 69.9492 298.383 69.2852C297.648 68.6133 297.281 67.7578 297.281 66.7188C297.281 66.1094 297.418 65.5547 297.691 65.0547C297.973 64.5469 298.336 64.1406 298.781 63.8359C299.234 63.5312 299.742 63.3008 300.305 63.1445C300.719 63.0352 301.344 62.9297 302.18 62.8281C303.883 62.625 305.137 62.3828 305.941 62.1016C305.949 61.8125 305.953 61.6289 305.953 61.5508C305.953 60.6914 305.754 60.0859 305.355 59.7344C304.816 59.2578 304.016 59.0195 302.953 59.0195C301.961 59.0195 301.227 59.1953 300.75 59.5469C300.281 59.8906 299.934 60.5039 299.707 61.3867L297.645 61.1055C297.832 60.2227 298.141 59.5117 298.57 58.9727C299 58.4258 299.621 58.0078 300.434 57.7188C301.246 57.4219 302.188 57.2734 303.258 57.2734C304.32 57.2734 305.184 57.3984 305.848 57.6484C306.512 57.8984 307 58.2148 307.312 58.5977C307.625 58.9727 307.844 59.4492 307.969 60.0273C308.039 60.3867 308.074 61.0352 308.074 61.9727V64.7852C308.074 66.7461 308.117 67.9883 308.203 68.5117C308.297 69.0273 308.477 69.5234 308.742 70H306.539C306.32 69.5625 306.18 69.0508 306.117 68.4648ZM305.941 63.7539C305.176 64.0664 304.027 64.332 302.496 64.5508C301.629 64.6758 301.016 64.8164 300.656 64.9727C300.297 65.1289 300.02 65.3594 299.824 65.6641C299.629 65.9609 299.531 66.293 299.531 66.6602C299.531 67.2227 299.742 67.6914 300.164 68.0664C300.594 68.4414 301.219 68.6289 302.039 68.6289C302.852 68.6289 303.574 68.4531 304.207 68.1016C304.84 67.7422 305.305 67.2539 305.602 66.6367C305.828 66.1602 305.941 65.457 305.941 64.5273V63.7539ZM311.355 70V57.5547H313.242V59.3008C313.633 58.6914 314.152 58.2031 314.801 57.8359C315.449 57.4609 316.188 57.2734 317.016 57.2734C317.938 57.2734 318.691 57.4648 319.277 57.8477C319.871 58.2305 320.289 58.7656 320.531 59.4531C321.516 58 322.797 57.2734 324.375 57.2734C325.609 57.2734 326.559 57.6172 327.223 58.3047C327.887 58.9844 328.219 60.0352 328.219 61.457V70H326.121V62.1602C326.121 61.3164 326.051 60.7109 325.91 60.3438C325.777 59.9688 325.531 59.668 325.172 59.4414C324.812 59.2148 324.391 59.1016 323.906 59.1016C323.031 59.1016 322.305 59.3945 321.727 59.9805C321.148 60.5586 320.859 61.4883 320.859 62.7695V70H318.75V61.9141C318.75 60.9766 318.578 60.2734 318.234 59.8047C317.891 59.3359 317.328 59.1016 316.547 59.1016C315.953 59.1016 315.402 59.2578 314.895 59.5703C314.395 59.8828 314.031 60.3398 313.805 60.9414C313.578 61.543 313.465 62.4102 313.465 63.543V70H311.355ZM346.148 68.4648C345.367 69.1289 344.613 69.5977 343.887 69.8711C343.168 70.1445 342.395 70.2812 341.566 70.2812C340.199 70.2812 339.148 69.9492 338.414 69.2852C337.68 68.6133 337.312 67.7578 337.312 66.7188C337.312 66.1094 337.449 65.5547 337.723 65.0547C338.004 64.5469 338.367 64.1406 338.812 63.8359C339.266 63.5312 339.773 63.3008 340.336 63.1445C340.75 63.0352 341.375 62.9297 342.211 62.8281C343.914 62.625 345.168 62.3828 345.973 62.1016C345.98 61.8125 345.984 61.6289 345.984 61.5508C345.984 60.6914 345.785 60.0859 345.387 59.7344C344.848 59.2578 344.047 59.0195 342.984 59.0195C341.992 59.0195 341.258 59.1953 340.781 59.5469C340.312 59.8906 339.965 60.5039 339.738 61.3867L337.676 61.1055C337.863 60.2227 338.172 59.5117 338.602 58.9727C339.031 58.4258 339.652 58.0078 340.465 57.7188C341.277 57.4219 342.219 57.2734 343.289 57.2734C344.352 57.2734 345.215 57.3984 345.879 57.6484C346.543 57.8984 347.031 58.2148 347.344 58.5977C347.656 58.9727 347.875 59.4492 348 60.0273C348.07 60.3867 348.105 61.0352 348.105 61.9727V64.7852C348.105 66.7461 348.148 67.9883 348.234 68.5117C348.328 69.0273 348.508 69.5234 348.773 70H346.57C346.352 69.5625 346.211 69.0508 346.148 68.4648ZM345.973 63.7539C345.207 64.0664 344.059 64.332 342.527 64.5508C341.66 64.6758 341.047 64.8164 340.688 64.9727C340.328 65.1289 340.051 65.3594 339.855 65.6641C339.66 65.9609 339.562 66.293 339.562 66.6602C339.562 67.2227 339.773 67.6914 340.195 68.0664C340.625 68.4414 341.25 68.6289 342.07 68.6289C342.883 68.6289 343.605 68.4531 344.238 68.1016C344.871 67.7422 345.336 67.2539 345.633 66.6367C345.859 66.1602 345.973 65.457 345.973 64.5273V63.7539ZM358.242 70V52.8203H360.516V67.9727H368.977V70H358.242ZM379.547 68.4648C378.766 69.1289 378.012 69.5977 377.285 69.8711C376.566 70.1445 375.793 70.2812 374.965 70.2812C373.598 70.2812 372.547 69.9492 371.812 69.2852C371.078 68.6133 370.711 67.7578 370.711 66.7188C370.711 66.1094 370.848 65.5547 371.121 65.0547C371.402 64.5469 371.766 64.1406 372.211 63.8359C372.664 63.5312 373.172 63.3008 373.734 63.1445C374.148 63.0352 374.773 62.9297 375.609 62.8281C377.312 62.625 378.566 62.3828 379.371 62.1016C379.379 61.8125 379.383 61.6289 379.383 61.5508C379.383 60.6914 379.184 60.0859 378.785 59.7344C378.246 59.2578 377.445 59.0195 376.383 59.0195C375.391 59.0195 374.656 59.1953 374.18 59.5469C373.711 59.8906 373.363 60.5039 373.137 61.3867L371.074 61.1055C371.262 60.2227 371.57 59.5117 372 58.9727C372.43 58.4258 373.051 58.0078 373.863 57.7188C374.676 57.4219 375.617 57.2734 376.688 57.2734C377.75 57.2734 378.613 57.3984 379.277 57.6484C379.941 57.8984 380.43 58.2148 380.742 58.5977C381.055 58.9727 381.273 59.4492 381.398 60.0273C381.469 60.3867 381.504 61.0352 381.504 61.9727V64.7852C381.504 66.7461 381.547 67.9883 381.633 68.5117C381.727 69.0273 381.906 69.5234 382.172 70H379.969C379.75 69.5625 379.609 69.0508 379.547 68.4648ZM379.371 63.7539C378.605 64.0664 377.457 64.332 375.926 64.5508C375.059 64.6758 374.445 64.8164 374.086 64.9727C373.727 65.1289 373.449 65.3594 373.254 65.6641C373.059 65.9609 372.961 66.293 372.961 66.6602C372.961 67.2227 373.172 67.6914 373.594 68.0664C374.023 68.4414 374.648 68.6289 375.469 68.6289C376.281 68.6289 377.004 68.4531 377.637 68.1016C378.27 67.7422 378.734 67.2539 379.031 66.6367C379.258 66.1602 379.371 65.457 379.371 64.5273V63.7539ZM386.73 70H384.773V52.8203H386.883V58.9492C387.773 57.832 388.91 57.2734 390.293 57.2734C391.059 57.2734 391.781 57.4297 392.461 57.7422C393.148 58.0469 393.711 58.4805 394.148 59.043C394.594 59.5977 394.941 60.2695 395.191 61.0586C395.441 61.8477 395.566 62.6914 395.566 63.5898C395.566 65.7227 395.039 67.3711 393.984 68.5352C392.93 69.6992 391.664 70.2812 390.188 70.2812C388.719 70.2812 387.566 69.668 386.73 68.4414V70ZM386.707 63.6836C386.707 65.1758 386.91 66.2539 387.316 66.918C387.98 68.0039 388.879 68.5469 390.012 68.5469C390.934 68.5469 391.73 68.1484 392.402 67.3516C393.074 66.5469 393.41 65.3516 393.41 63.7656C393.41 62.1406 393.086 60.9414 392.438 60.168C391.797 59.3945 391.02 59.0078 390.105 59.0078C389.184 59.0078 388.387 59.4102 387.715 60.2148C387.043 61.0117 386.707 62.168 386.707 63.6836ZM406.664 65.9922L408.844 66.2617C408.5 67.5352 407.863 68.5234 406.934 69.2266C406.004 69.9297 404.816 70.2812 403.371 70.2812C401.551 70.2812 400.105 69.7227 399.035 68.6055C397.973 67.4805 397.441 65.9062 397.441 63.8828C397.441 61.7891 397.98 60.1641 399.059 59.0078C400.137 57.8516 401.535 57.2734 403.254 57.2734C404.918 57.2734 406.277 57.8398 407.332 58.9727C408.387 60.1055 408.914 61.6992 408.914 63.7539C408.914 63.8789 408.91 64.0664 408.902 64.3164H399.621C399.699 65.6836 400.086 66.7305 400.781 67.457C401.477 68.1836 402.344 68.5469 403.383 68.5469C404.156 68.5469 404.816 68.3438 405.363 67.9375C405.91 67.5312 406.344 66.8828 406.664 65.9922ZM399.738 62.582H406.688C406.594 61.5352 406.328 60.75 405.891 60.2266C405.219 59.4141 404.348 59.0078 403.277 59.0078C402.309 59.0078 401.492 59.332 400.828 59.9805C400.172 60.6289 399.809 61.4961 399.738 62.582ZM411.457 70V52.8203H413.566V70H411.457ZM417.445 70V67.5977H419.848V70H417.445Z" fill="black"/>
</svg>
